<?xml version="1.0" encoding="utf-8" standalone="yes"?>
<!DOCTYPE svg PUBLIC "-//W3C//DTD SVG 1.1//EN" "http://www.w3.org/Graphics/SVG/1.1/DTD/svg11.dtd">
<svg style="fill:none;stroke:none;fill-rule:evenodd;clip-rule:evenodd;stroke-linecap:round;stroke-linejoin:round;stroke-miterlimit:1.5;" version="1.1"
     xmlns="http://www.w3.org/2000/svg" xmlns:xlink="http://www.w3.org/1999/xlink" width="888" height="270" viewBox="190 160 888 180">
    <style class="text-font-style fontImports" data-font-family="Inter">@font-face {font-family: 'Inter Regular';src:
        url(https://fonts.napkin.ai/google-fonts/20250207/inter/inter_regular.ttf) format("truetype");font-weight: normal;font-style: normal;}
    </style>
    <g id="items" style="isolation: isolate">
        <g id="blend" style="mix-blend-mode: normal">
            <g id="g-root-cp_3_g-3_1um5xyr984hzg-fill" data-item-order="999687530" transform="translate(403.9998779296875, 210)">
                <g id="cp_3_g-3_1um5xyr984hzg-fill-merged" stroke="none" fill="#67fac4" fill-opacity="1">
                    <g>
                        <path d="M28.274 57.699C27.102 57.247 25.83 57 24.5 57C18.701 57 14 61.701 14 67.5C14 68.412 14.116 69.297 14.335 70.141C11.636 73.308 10 77.457 10 82C10 87.69 12.567 92.764 16.576 96.063C16.203 97.14 16 98.296 16 99.5C16 105.299 20.701 110 26.5 110C27.29 110 28.06 109.913 28.8 109.747C31.354 112.365 34.979 114 39 114C43.501 114 47.507 111.951 50.068 108.768C51.652 110.158 53.728 111 56 111C60.971 111 65 106.971 65 102C65 101.139 64.879 100.307 64.654 99.519C67.982 95.645 70 90.563 70 85C70 80.663 68.773 76.618 66.656 73.211C66.881 72.176 67 71.102 67 70C67 61.716 60.284 55 52 55C50.211 55 48.495 55.313 46.904 55.888C44.542 54.682 41.853 54 39 54C34.933 54 31.199 55.386 28.274 57.699"></path>
                    </g>
                </g>
                <g id="cp_3_g-3_1um5xyr984hzg-fill-merged" stroke="none" fill="#67fac4" fill-opacity="1">
                    <g>
                        <path d="M32 36C32 40.418 35.582 44 40 44C44.419 44 48 40.418 48 36C48 31.582 44.419 28 40 28C35.582 28 32 31.582 32 36"></path>
                    </g>
                </g>
                <g id="cp_3_g-3_1um5xyr984hzg-fill-merged" stroke="none" fill="#67fac4" fill-opacity="1">
                    <g>
                        <path d="M44 14C44 11.791 42.209 10 40 10C37.791 10 36 11.791 36 14C36 16.209 37.791 18 40 18C42.209 18 44 16.209 44 14"></path>
                    </g>
                </g>
            </g>
            <g id="g-root-cp_3_g-3_1um5xyr984hzg-stroke" data-item-order="999687530" transform="translate(403.9998779296875, 210)">
                <g id="cp_3_g-3_1um5xyr984hzg-stroke" fill="none" stroke-linecap="round" stroke-linejoin="round" stroke-miterlimit="4" stroke="#ffffff"
                   stroke-width="1" stroke-opacity="1">
                    <g>
                        <path d="M 28.2735 57.6985C 27.1024 57.2473 25.8301 57 24.5 57C 18.701 57 14 61.701 14 67.5C 14 68.4121 14.1163 69.297 14.3349 70.1407C 11.6359 73.3079 10 77.4575 10 82C 10 87.6905 12.5673 92.7643 16.5755 96.0628C 16.2026 97.1397 16 98.2962 16 99.5C 16 105.299 20.701 110 26.5 110C 27.2901 110 28.0599 109.9127 28.8001 109.7473C 31.3536 112.3652 34.9788 114 39 114C 43.5014 114 47.5067 111.9514 50.0677 108.7683C 51.6517 110.1577 53.7275 111 56 111C 60.9706 111 65 106.9706 65 102C 65 101.1394 64.8792 100.3069 64.6536 99.5188C 67.9818 95.6447 70 90.5635 70 85C 70 80.6626 68.7733 76.6183 66.6556 73.2107C 66.8812 72.1763 67 71.102 67 70C 67 61.7157 60.2843 55 52 55C 50.2108 55 48.4947 55.3133 46.9037 55.8879C 44.5425 54.6823 41.8533 54 39 54C 34.9329 54 31.1993 55.3862 28.2735 57.6985Z"></path>
                    </g>
                </g>
                <g id="cp_3_g-3_1um5xyr984hzg-stroke" fill="none" stroke-linecap="round" stroke-linejoin="round" stroke-miterlimit="4" stroke="#ffffff"
                   stroke-width="1" stroke-opacity="1">
                    <g>
                        <path d="M 32.000275 36C 32.000275 40.418278 35.581997 44 40.000275 44C 44.418553 44 48.000275 40.418278 48.000275 36C 48.000275 31.581722 44.418553 28 40.000275 28C 35.581997 28 32.000275 31.581722 32.000275 36"></path>
                    </g>
                </g>
                <g id="cp_3_g-3_1um5xyr984hzg-stroke" fill="none" stroke-linecap="round" stroke-linejoin="round" stroke-miterlimit="4" stroke="#ffffff"
                   stroke-width="1" stroke-opacity="1">
                    <g>
                        <path d="M 44.000366 14C 44.000366 11.7909 42.209466 10 40.000366 10C 37.791266 10 36.000366 11.7909 36.000366 14C 36.000366 16.2091 37.791266 18 40.000366 18C 42.209466 18 44.000366 16.2091 44.000366 14Z"></path>
                    </g>
                </g>
            </g>
            <g id="g-root-cp_2_g-2_1q6cfub984irp-fill" data-item-order="999687534" transform="translate(498, 152)">
                <g id="cp_2_g-2_1q6cfub984irp-fill-merged" stroke="none" fill="#35d99d" fill-opacity="1">
                    <g>
                        <path d="M83 70C87.95 70 92.519 68.402 96.194 65.706C97.782 66.533 99.586 67 101.5 67C107.851 67 113 61.851 113 55.5C113 52.514 111.862 49.794 109.996 47.75C112.435 45.827 114 42.846 114 39.5C114 37.08 113.182 34.852 111.806 33.076C111.934 32.237 112 31.376 112 30.5C112 21.387 104.837 14 96 14C95.009 14 94.04 14.093 93.099 14.271C90.011 11.613 85.95 10 81.5 10C76.933 10 72.774 11.7 69.658 14.483C68.661 14.169 67.6 14 66.5 14C60.701 14 56 18.701 56 24.5C56 27.072 56.925 29.428 58.46 31.254C56.915 33.417 56 36.098 56 39C56 41.302 56.575 43.464 57.584 45.339C55.359 47.746 54 50.964 54 54.5C54 61.956 60.044 68 67.5 68C69.122 68 70.677 67.714 72.118 67.19C75.327 68.978 79.041 70 83 70"></path>
                    </g>
                </g>
                <g id="cp_2_g-2_1q6cfub984irp-fill-merged" stroke="none" fill="#35d99d" fill-opacity="1">
                    <g>
                        <path d="M28 22C28 26.418 31.582 30 36 30C40.418 30 44 26.418 44 22C44 17.582 40.418 14 36 14C31.582 14 28 17.582 28 22"></path>
                    </g>
                </g>
                <g id="cp_2_g-2_1q6cfub984irp-fill-merged" stroke="none" fill="#35d99d" fill-opacity="1">
                    <g>
                        <path d="M18 16C18 13.791 16.209 12 14 12C11.791 12 10 13.791 10 16C10 18.209 11.791 20 14 20C16.209 20 18 18.209 18 16"></path>
                    </g>
                </g>
            </g>
            <g id="g-root-cp_2_g-2_1q6cfub984irp-stroke" data-item-order="999687534" transform="translate(498, 152)">
                <g id="cp_2_g-2_1q6cfub984irp-stroke" fill="none" stroke-linecap="round" stroke-linejoin="round" stroke-miterlimit="4" stroke="#ffffff"
                   stroke-width="1" stroke-opacity="1">
                    <g>
                        <path d="M 83 70C 87.9502 70 92.5185 68.4023 96.1944 65.7057C 97.7818 66.5326 99.5863 67 101.5 67C 107.8513 67 113 61.8513 113 55.5C 113 52.5141 111.8621 49.794 109.9962 47.7498C 112.4346 45.827 114 42.8463 114 39.5C 114 37.0802 113.1815 34.8516 111.8062 33.076C 111.9338 32.2366 112 31.3763 112 30.5C 112 21.3873 104.8366 14 96 14C 95.0095 14 94.04 14.0928 93.0993 14.2705C 90.0114 11.6132 85.9496 10 81.5 10C 76.9328 10 72.7743 11.6996 69.658 14.4832C 68.6613 14.1693 67.6004 14 66.5 14C 60.701 14 56 18.701 56 24.5C 56 27.0722 56.9249 29.4283 58.4602 31.2541C 56.9145 33.4174 56 36.0976 56 39C 56 41.3016 56.5751 43.4636 57.5841 45.3388C 55.3594 47.7456 54 50.9641 54 54.5C 54 61.9558 60.0442 68 67.5 68C 69.1219 68 70.677 67.714 72.1175 67.1897C 75.3267 68.9782 79.0413 70 83 70Z"></path>
                    </g>
                </g>
                <g id="cp_2_g-2_1q6cfub984irp-stroke" fill="none" stroke-linecap="round" stroke-linejoin="round" stroke-miterlimit="4" stroke="#ffffff"
                   stroke-width="1" stroke-opacity="1">
                    <g>
                        <path d="M 28 22C 28 26.418278 31.581722 30 36 30C 40.418278 30 44 26.418278 44 22C 44 17.581722 40.418278 14 36 14C 31.581722 14 28 17.581722 28 22"></path>
                    </g>
                </g>
                <g id="cp_2_g-2_1q6cfub984irp-stroke" fill="none" stroke-linecap="round" stroke-linejoin="round" stroke-miterlimit="4" stroke="#ffffff"
                   stroke-width="1" stroke-opacity="1">
                    <g>
                        <path d="M 18 16C 18 13.7909 16.2091 12 14 12C 11.7909 12 10 13.7909 10 16C 10 18.2091 11.7909 20 14 20C 16.2091 20 18 18.2091 18 16Z"></path>
                    </g>
                </g>
            </g>
            <g id="g-root-cp_1_g-1_1q6cfub984irq-fill" data-item-order="999687538" transform="translate(266, 152)">
                <g id="cp_1_g-1_1q6cfub984irq-fill-merged" stroke="none" fill="#3da47f" fill-opacity="1">
                    <g>
                        <path d="M20.598 19C20.565 19 20.533 19 20.5 19C14.701 19 10 23.701 10 29.5C10 32.574 11.321 35.339 13.426 37.259C13.148 38.459 13 39.712 13 41C13 41.745 13.049 42.478 13.145 43.196C11.788 45.301 11 47.809 11 50.5C11 57.956 17.044 64 24.5 64C24.847 64 25.19 63.987 25.53 63.961C29.172 67.682 34.308 70 40 70C45.641 70 50.737 67.723 54.373 64.059C55.621 64.662 57.021 65 58.5 65C63.747 65 68 60.747 68 55.5C68 52.629 66.726 50.055 64.712 48.313C67.948 45.469 70 41.232 70 36.5C70 32.425 68.478 28.717 65.99 25.95C65.996 25.801 66 25.651 66 25.5C66 20.253 61.747 16 56.5 16C55.921 16 55.353 16.052 54.802 16.151C50.681 12.338 45.12 10 39 10C31.475 10 24.794 13.535 20.598 19"></path>
                    </g>
                </g>
                <g id="cp_1_g-1_1q6cfub984irq-fill-merged" stroke="none" fill="#3da47f" fill-opacity="1">
                    <g>
                        <path d="M80 22C80 26.418 83.582 30 88 30C92.418 30 96 26.418 96 22C96 17.582 92.418 14 88 14C83.582 14 80 17.582 80 22"></path>
                    </g>
                </g>
                <g id="cp_1_g-1_1q6cfub984irq-fill-merged" stroke="none" fill="#3da47f" fill-opacity="1">
                    <g>
                        <path d="M114 16C114 13.791 112.209 12 110 12C107.791 12 106 13.791 106 16C106 18.209 107.791 20 110 20C112.209 20 114 18.209 114 16"></path>
                    </g>
                </g>
            </g>
            <g id="g-root-cp_1_g-1_1q6cfub984irq-stroke" data-item-order="999687538" transform="translate(266, 152)">
                <g id="cp_1_g-1_1q6cfub984irq-stroke" fill="none" stroke-linecap="round" stroke-linejoin="round" stroke-miterlimit="4" stroke="#ffffff"
                   stroke-width="1" stroke-opacity="1">
                    <g>
                        <path d="M 20.598 19.0005C 20.5653 19.0002 20.5327 19 20.5 19C 14.701 19 10 23.701 10 29.5C 10 32.5738 11.3208 35.3392 13.4259 37.2594C 13.1475 38.4594 13 39.7119 13 41C 13 41.7449 13.0493 42.4779 13.1448 43.1957C 11.7875 45.3013 11 47.8087 11 50.5C 11 57.9558 17.0442 64 24.5 64C 24.8465 64 25.19 63.9869 25.5299 63.9613C 29.172 67.6819 34.3084 70 40 70C 45.6415 70 50.7374 67.7226 54.3734 64.0594C 55.6214 64.6621 57.0212 65 58.5 65C 63.7467 65 68 60.7467 68 55.5C 68 52.6285 66.726 50.0545 64.7124 48.3125C 67.9476 45.4694 70 41.2324 70 36.5C 70 32.4248 68.4781 28.717 65.9895 25.9503C 65.9965 25.801 66 25.6509 66 25.5C 66 20.2533 61.7467 16 56.5 16C 55.9205 16 55.3531 16.0519 54.8022 16.1513C 50.6815 12.3382 45.1199 10 39 10C 31.475 10 24.7941 13.5352 20.598 19.0005Z"></path>
                    </g>
                </g>
                <g id="cp_1_g-1_1q6cfub984irq-stroke" fill="none" stroke-linecap="round" stroke-linejoin="round" stroke-miterlimit="4" stroke="#ffffff"
                   stroke-width="1" stroke-opacity="1">
                    <g>
                        <path d="M 80 22C 80 26.418278 83.581722 30 88 30C 92.418278 30 96 26.418278 96 22C 96 17.581722 92.418278 14 88 14C 83.581722 14 80 17.581722 80 22"></path>
                    </g>
                </g>
                <g id="cp_1_g-1_1q6cfub984irq-stroke" fill="none" stroke-linecap="round" stroke-linejoin="round" stroke-miterlimit="4" stroke="#ffffff"
                   stroke-width="1" stroke-opacity="1">
                    <g>
                        <path d="M 114 16C 114 13.7909 112.2091 12 110 12C 107.7909 12 106 13.7909 106 16C 106 18.2091 107.7909 20 110 20C 112.2091 20 114 18.2091 114 16Z"></path>
                    </g>
                </g>
            </g>
            <g id="g-root-ic_face_zk1w6r984irs-fill" data-item-order="1000000000" transform="translate(398, 110)"></g>
            <g id="g-root-ic_face_zk1w6r984irs-stroke" data-item-order="1000000000" transform="translate(398, 110)">
                <g id="ic_face_zk1w6r984irs-stroke" fill="none" stroke-linecap="round" stroke-linejoin="round" stroke-miterlimit="4" stroke="#2b3846"
                   stroke-width="1" stroke-opacity="1">
                    <g>
                        <path d="M 46.599998 39.681999C 43.599998 36.681999 37.599998 35.181999 34.599998 38.181999M 16.9 45.681999C 16.6 44.482002 16.6 43.281998 16.6 41.781998C 16.6 25.581999 29.799999 12.382 46 12.382C 62.199997 12.382 75.399994 25.581999 75.399994 41.781998C 75.399994 52.582001 69.699997 61.882004 61 66.981995M 40.449997 77.800003C 46.449997 75.399994 45.324997 70.111 44.125 65.311005L 53.677002 61.612C 55.891281 60.755096 57.049278 58.316589 56.314003 56.059002L 56.313999 56.058998C 55.93375 54.891376 55.08989 53.931606 53.980541 53.405022C 52.871193 52.878433 51.594067 52.831413 50.449001 53.275002L 32.875 60.084999C 31.375 60.685001 29.575001 59.485001 29.575001 57.985001L 29.458 55.144001C 29.410076 53.986492 28.88414 52.900726 28.005583 52.145561C 27.127028 51.390404 25.974579 51.03352 24.823002 51.160004L 24.823 51.16C 22.704519 51.393932 21.100885 53.183647 21.1 55.315002L 21.1 67.584999C 21.1 75.385002 28.299999 81.084999 35.800003 79.284996C 35.800003 79.284996 38.949997 78.399994 40.449997 77.800003ZM 31.825001 27.681999C 31.20368 27.681999 30.700001 27.178322 30.700001 26.556999C 30.700001 25.93568 31.20368 25.431999 31.825001 25.431999M 31.825001 27.681999C 32.44632 27.681999 32.950001 27.178322 32.950001 26.556999C 32.950001 25.93568 32.44632 25.431999 31.825001 25.431999M 47.800003 27.681999C 47.17868 27.681999 46.675003 27.178322 46.675003 26.556999C 46.675003 25.93568 47.17868 25.431999 47.800003 25.431999M 47.800003 27.681999C 48.421322 27.681999 48.925003 27.178322 48.925003 26.556999C 48.925003 25.93568 48.421322 25.431999 47.800003 25.431999"></path>
                    </g>
                </g>
            </g>
            <g id="g-root-ic_cog_dgp837984j5v-fill" data-item-order="1000000000" transform="translate(278, 164)"></g>
            <g id="g-root-ic_cog_dgp837984j5v-stroke" data-item-order="1000000000" transform="translate(278, 164)">
                <g id="ic_cog_dgp837984j5v-stroke" fill="none" stroke-linecap="round" stroke-linejoin="round" stroke-miterlimit="4" stroke="#ffffff"
                   stroke-width="1" stroke-opacity="1">
                    <g>
                        <path d="M 10 10M 27.821051 29.837502L 25.571051 32.087502L 27.821051 34.337502M 10 10M 38.771049 29.837502L 41.021049 32.087502L 38.771049 34.337502M 10 10M 31.571051 34.337502L 34.571049 28.337502M 10 10M 20.32111 12.4375L 20.92111 14.237515C 21.07111 14.837515 21.82111 15.287516 22.42111 15.137515L 24.221109 14.6875C 25.87105 14.3875 26.921049 16.187515 25.87105 17.387516L 24.521111 18.737514C 24.07111 19.187515 24.07111 19.937515 24.521111 20.387516L 25.87105 21.737514C 26.921049 22.937515 25.87105 24.887501 24.221109 24.4375L 22.42111 23.987514C 21.82111 23.837515 21.07111 24.137514 20.92111 24.887514L 20.32111 26.6875C 19.871109 28.337502 17.621109 28.337502 17.17111 26.6875L 16.57111 24.887514C 16.42111 24.287516 15.67111 23.837515 15.07111 23.987514L 13.271111 24.4375C 11.62111 24.737499 10.571113 22.937515 11.62111 21.737514L 12.97111 20.387516C 13.42111 19.937515 13.42111 19.187515 12.97111 18.737514L 11.62111 17.387516C 10.571113 16.187515 11.62111 14.2375 13.271111 14.6875L 15.07111 15.137515C 15.67111 15.287516 16.42111 14.987515 16.57111 14.237515L 17.17111 12.4375C 17.621109 10.787504 19.871109 10.787504 20.32111 12.4375ZM 10 10M 25.075001 38.263752L 23.575075 44.293747M 10 10M 31.075001 38.263752L 32.575001 44.293747M 19.075075 44.293747L 37.074997 44.293747M 31.65625 14.143765L 41.95015 14.143765C 43.600151 14.143765 44.95015 15.500515 44.95015 17.158766L 44.95015 35.248749C 44.95015 36.906998 43.600151 38.263752 41.95015 38.263752L 14.200075 38.263752C 12.550075 38.263752 11.200073 36.906998 11.200073 35.248749L 11.200073 30.34375M 16.4965 19.5625C 16.4965 20.805141 17.50386 21.8125 18.7465 21.8125C 19.989141 21.8125 20.9965 20.805141 20.9965 19.5625C 20.9965 18.31986 19.989141 17.3125 18.7465 17.3125C 17.50386 17.3125 16.4965 18.31986 16.4965 19.5625"></path>
                    </g>
                </g>
            </g>
            <g id="g-root-ic_desk_142zrqr984j5t-fill" data-item-order="1000000000" transform="translate(554, 164)"></g>
            <g id="g-root-ic_desk_142zrqr984j5t-stroke" data-item-order="1000000000" transform="translate(554, 164)">
                <g id="ic_desk_142zrqr984j5t-stroke" fill="none" stroke-linecap="round" stroke-linejoin="round" stroke-miterlimit="4" stroke="#ffffff"
                   stroke-width="1" stroke-opacity="1">
                    <g>
                        <path d="M 23.706999 45.25C 24.950039 43.487682 25.659298 41.404686 25.75 39.25M 32.292999 45.25C 31.049961 43.487682 30.340702 41.404686 30.249998 39.25M 21.25 45.251499L 34.75 45.251499M 10.75 34.751499L 45.25 34.751499M 12.25 10.7515L 43.75 10.7515C 43.75 10.7515 45.25 10.7515 45.25 12.2515L 45.25 37.751499C 45.25 37.751499 45.25 39.251499 43.75 39.251499L 12.25 39.251499C 12.25 39.251499 10.75 39.251499 10.75 37.751499L 10.75 12.2515C 10.75 12.2515 10.75 10.7515 12.25 10.7515M 30.1555 22.75C 30.15633 23.940645 29.191647 24.906448 28.001001 24.907001C 26.810356 24.907553 25.844778 23.942646 25.844501 22.752001C 25.844225 21.561356 26.809355 20.596001 28.000002 20.596001C 29.189865 20.596001 30.154675 21.560137 30.1555 22.75ZM 29.416 16.299999L 29.9065 17.914C 30.077868 18.467255 30.647194 18.794453 31.211498 18.664L 32.8465 18.2845C 33.483253 18.140865 34.139282 18.429001 34.464325 18.995071C 34.789368 19.561142 34.707527 20.272964 34.262497 20.7505L 33.118 22C 32.723846 22.426939 32.723846 23.085062 33.118 23.511999L 34.262497 24.747999C 34.706142 25.225714 34.787151 25.93659 34.462364 26.501871C 34.137577 27.067152 33.482635 27.355183 32.8465 27.2125L 31.2115 26.833C 30.647194 26.702545 30.077868 27.029743 29.906498 27.582998L 29.416 29.200001C 29.227636 29.824549 28.652336 30.251934 28 30.251934C 27.347664 30.251934 26.772364 29.824549 26.584 29.200001L 26.0935 27.586C 25.922131 27.032745 25.352804 26.705545 24.788498 26.835999L 23.1535 27.2155C 22.517363 27.358183 21.862423 27.070152 21.537636 26.504871C 21.212849 25.93959 21.293858 25.228714 21.737499 24.750999L 22.882 23.514999C 23.278002 23.087631 23.278002 22.427366 22.882 22L 21.737499 20.765499C 21.288275 20.288521 21.203913 19.573832 21.529736 19.005367C 21.855558 18.436903 22.514877 18.148462 23.1535 18.295L 24.7885 18.6745C 25.352804 18.804953 25.922131 18.477755 26.093498 17.9245L 26.584 16.299999C 26.772364 15.675451 27.347664 15.248066 28 15.248066C 28.652336 15.248066 29.227636 15.675451 29.416 16.299999Z"></path>
                    </g>
                </g>
            </g>
            <g id="g-root-tx_idebased_mfglrn984iro-fill" data-item-order="1000000000" transform="translate(177.8125, 170)">
                <g id="tx_idebased_mfglrn984iro-fill-merged" stroke="none" fill="#2b3846" fill-opacity="1">
                    <g>
                        <text style="font: 15px &quot;Inter Regular&quot;, sans-serif; white-space: pre;" transform="translate(86.1875, 19)" font-size="15px"
                              font-family="'Inter Regular', sans-serif">
                            <tspan x="-74.19" y="9" dominant-baseline="ideographic">IDE Based</tspan>
                        </text>
                    </g>
                </g>
            </g>
            <g id="g-root-tx_idebased_mfglrn984iro-stroke" data-item-order="1000000000" transform="translate(177.8125, 170)"></g>
            <g id="g-root-tx_desktopa_1uua437984ikm-fill" data-item-order="1000000000" transform="translate(614, 170)">
                <g id="tx_desktopa_1uua437984ikm-fill-merged" stroke="none" fill="#2b3846" fill-opacity="1">
                    <g>
                        <text style="font: 15px &quot;Inter Regular&quot;, sans-serif; white-space: pre;" transform="translate(10, 19)" font-size="15px"
                              font-family="'Inter Regular', sans-serif">
                            <tspan x="2" y="9" dominant-baseline="ideographic">Desktop Apps</tspan>
                        </text>
                    </g>
                </g>
            </g>
            <g id="g-root-tx_desktopa_1uua437984ikm-stroke" data-item-order="1000000000" transform="translate(614, 170)"></g>
            <g id="g-root-ic_1_qrj9df984kqq-fill" data-item-order="1000000000" transform="translate(416, 266)"></g>
            <g id="g-root-ic_1_qrj9df984kqq-stroke" data-item-order="1000000000" transform="translate(416, 266)">
                <g id="ic_1_qrj9df984kqq-stroke" fill="none" stroke-linecap="round" stroke-linejoin="round" stroke-miterlimit="4" stroke="#ffffff"
                   stroke-width="1" stroke-opacity="1">
                    <g>
                        <path d="M 16 27.248499L 22 27.248499M 19 27.248499L 19 39.248501M 34 27.248499L 40 27.248499M 37 27.248499L 37 39.248501M 25 39.248501L 31 27.248499M 31 39.248501L 25 27.248499M 12.25 10.7485L 43.75 10.7485C 43.75 10.7485 45.25 10.7485 45.25 12.2485L 45.25 43.748501C 45.25 43.748501 45.25 45.248501 43.75 45.248501L 12.25 45.248501C 12.25 45.248501 10.75 45.248501 10.75 43.748501L 10.75 12.2485C 10.75 12.2485 10.75 10.7485 12.25 10.7485"></path>
                    </g>
                </g>
            </g>
            <g id="g-root-tx_terminal_1d303lf984kxs-fill" data-item-order="1000000000" transform="translate(377.4296875, 326)">
                <g id="tx_terminal_1d303lf984kxs-fill-merged" stroke="none" fill="#2b3846" fill-opacity="1">
                    <g>
                        <text style="font: 15px &quot;Inter Regular&quot;, sans-serif; white-space: pre;" transform="translate(66.5703125, 19)" font-size="15px"
                              font-family="'Inter Regular', sans-serif">
                            <tspan x="-54.57" y="9" dominant-baseline="ideographic">Terminal Based</tspan>
                        </text>
                    </g>
                </g>
            </g>
            <g id="g-root-tx_terminal_1d303lf984kxs-stroke" data-item-order="1000000000" transform="translate(377.4296875, 326)"></g>
        </g>
    </g>
</svg>

