<?xml version="1.0" encoding="utf-8" standalone="yes"?>
<!DOCTYPE svg PUBLIC "-//W3C//DTD SVG 1.1//EN" "http://www.w3.org/Graphics/SVG/1.1/DTD/svg11.dtd">
<svg style="fill:none;stroke:none;fill-rule:evenodd;clip-rule:evenodd;stroke-linecap:round;stroke-linejoin:round;stroke-miterlimit:1.5;" version="1.1"
     xmlns="http://www.w3.org/2000/svg" xmlns:xlink="http://www.w3.org/1999/xlink" width="866" height="80" viewBox="150 80 866 80">
    <style class="text-font-style fontImports" data-font-family="Inter">@font-face {font-family: 'Inter Regular';src:
        url(https://fonts.napkin.ai/google-fonts/20250207/inter/inter_regular.ttf) format("truetype");font-weight: normal;font-style: normal;}
    </style>
    <g id="items" style="isolation: isolate">
        <g id="blend" style="mix-blend-mode: normal">
            <g id="g-root-cp_2_g-2_18kop7ncug4xs-fill" data-item-order="-181430" transform="translate(487, 81)">
                <g id="cp_2_g-2_18kop7ncug4xs-fill-merged" stroke="none" fill="#67fac4" fill-opacity="1">
                    <g>
                        <path d="M83 70C87.95 70 92.519 68.402 96.194 65.706C97.782 66.533 99.586 67 101.5 67C107.851 67 113 61.851 113 55.5C113 52.514 111.862 49.794 109.996 47.75C112.435 45.827 114 42.846 114 39.5C114 37.08 113.182 34.852 111.806 33.076C111.934 32.237 112 31.376 112 30.5C112 21.387 104.837 14 96 14C95.009 14 94.04 14.093 93.099 14.271C90.011 11.613 85.95 10 81.5 10C76.933 10 72.774 11.7 69.658 14.483C68.661 14.169 67.6 14 66.5 14C60.701 14 56 18.701 56 24.5C56 27.072 56.925 29.428 58.46 31.254C56.915 33.417 56 36.098 56 39C56 41.302 56.575 43.464 57.584 45.339C55.359 47.746 54 50.964 54 54.5C54 61.956 60.044 68 67.5 68C69.122 68 70.677 67.714 72.118 67.19C75.327 68.978 79.041 70 83 70"></path>
                    </g>
                </g>
                <g id="cp_2_g-2_18kop7ncug4xs-fill-merged" stroke="none" fill="#67fac4" fill-opacity="1">
                    <g>
                        <path d="M28 40C28 44.418 31.582 48 36 48C40.418 48 44 44.418 44 40C44 35.582 40.418 32 36 32C31.582 32 28 35.582 28 40"></path>
                    </g>
                </g>
                <g id="cp_2_g-2_18kop7ncug4xs-fill-merged" stroke="none" fill="#67fac4" fill-opacity="1">
                    <g>
                        <path d="M18 40C18 37.791 16.209 36 14 36C11.791 36 10 37.791 10 40C10 42.209 11.791 44 14 44C16.209 44 18 42.209 18 40"></path>
                    </g>
                </g>
            </g>
            <g id="g-root-cp_2_g-2_18kop7ncug4xs-stroke" data-item-order="-181430" transform="translate(487, 81)">
                <g id="cp_2_g-2_18kop7ncug4xs-stroke" fill="none" stroke-linecap="round" stroke-linejoin="round" stroke-miterlimit="4" stroke="#ffffff"
                   stroke-width="1" stroke-opacity="1">
                    <g>
                        <path d="M 83 70C 87.9502 70 92.5185 68.4023 96.1944 65.7057C 97.7818 66.5326 99.5863 67 101.5 67C 107.8513 67 113 61.8513 113 55.5C 113 52.5141 111.8621 49.794 109.9962 47.7498C 112.4346 45.827 114 42.8463 114 39.5C 114 37.0802 113.1815 34.8516 111.8062 33.076C 111.9338 32.2366 112 31.3763 112 30.5C 112 21.3873 104.8366 14 96 14C 95.0095 14 94.04 14.0928 93.0993 14.2705C 90.0114 11.6132 85.9496 10 81.5 10C 76.9328 10 72.7743 11.6996 69.658 14.4832C 68.6613 14.1693 67.6004 14 66.5 14C 60.701 14 56 18.701 56 24.5C 56 27.0722 56.9249 29.4283 58.4602 31.2541C 56.9145 33.4174 56 36.0976 56 39C 56 41.3016 56.5751 43.4636 57.5841 45.3388C 55.3594 47.7456 54 50.9641 54 54.5C 54 61.9558 60.0442 68 67.5 68C 69.1219 68 70.677 67.714 72.1175 67.1897C 75.3267 68.9782 79.0413 70 83 70Z"></path>
                    </g>
                </g>
                <g id="cp_2_g-2_18kop7ncug4xs-stroke" fill="none" stroke-linecap="round" stroke-linejoin="round" stroke-miterlimit="4" stroke="#ffffff"
                   stroke-width="1" stroke-opacity="1">
                    <g>
                        <path d="M 28 40C 28 44.418278 31.581722 48 36 48C 40.418278 48 44 44.418278 44 40C 44 35.581722 40.418278 32 36 32C 31.581722 32 28 35.581722 28 40"></path>
                    </g>
                </g>
                <g id="cp_2_g-2_18kop7ncug4xs-stroke" fill="none" stroke-linecap="round" stroke-linejoin="round" stroke-miterlimit="4" stroke="#ffffff"
                   stroke-width="1" stroke-opacity="1">
                    <g>
                        <path d="M 18 40C 18 37.7909 16.2091 36 14 36C 11.7909 36 10 37.7909 10 40C 10 42.2091 11.7909 44 14 44C 16.2091 44 18 42.2091 18 40Z"></path>
                    </g>
                </g>
            </g>
            <g id="g-root-cp_1_g-1_18kop7ncug4xt-fill" data-item-order="-181426" transform="translate(255, 81)">
                <g id="cp_1_g-1_18kop7ncug4xt-fill-merged" stroke="none" fill="#36c490" fill-opacity="1">
                    <g>
                        <path d="M20.598 19C20.565 19 20.533 19 20.5 19C14.701 19 10 23.701 10 29.5C10 32.574 11.321 35.339 13.426 37.259C13.148 38.459 13 39.712 13 41C13 41.745 13.049 42.478 13.145 43.196C11.788 45.301 11 47.809 11 50.5C11 57.956 17.044 64 24.5 64C24.847 64 25.19 63.987 25.53 63.961C29.172 67.682 34.308 70 40 70C45.641 70 50.737 67.723 54.373 64.059C55.621 64.662 57.021 65 58.5 65C63.747 65 68 60.747 68 55.5C68 52.629 66.726 50.055 64.712 48.313C67.948 45.469 70 41.232 70 36.5C70 32.425 68.478 28.717 65.99 25.95C65.996 25.801 66 25.651 66 25.5C66 20.253 61.747 16 56.5 16C55.921 16 55.353 16.052 54.802 16.151C50.681 12.338 45.12 10 39 10C31.475 10 24.794 13.535 20.598 19"></path>
                    </g>
                </g>
                <g id="cp_1_g-1_18kop7ncug4xt-fill-merged" stroke="none" fill="#36c490" fill-opacity="1">
                    <g>
                        <path d="M80 40C80 44.418 83.582 48 88 48C92.418 48 96 44.418 96 40C96 35.582 92.418 32 88 32C83.582 32 80 35.582 80 40"></path>
                    </g>
                </g>
                <g id="cp_1_g-1_18kop7ncug4xt-fill-merged" stroke="none" fill="#36c490" fill-opacity="1">
                    <g>
                        <path d="M114 40C114 37.791 112.209 36 110 36C107.791 36 106 37.791 106 40C106 42.209 107.791 44 110 44C112.209 44 114 42.209 114 40"></path>
                    </g>
                </g>
            </g>
            <g id="g-root-cp_1_g-1_18kop7ncug4xt-stroke" data-item-order="-181426" transform="translate(255, 81)">
                <g id="cp_1_g-1_18kop7ncug4xt-stroke" fill="none" stroke-linecap="round" stroke-linejoin="round" stroke-miterlimit="4" stroke="#ffffff"
                   stroke-width="1" stroke-opacity="1">
                    <g>
                        <path d="M 20.598 19.0005C 20.5653 19.0002 20.5327 19 20.5 19C 14.701 19 10 23.701 10 29.5C 10 32.5738 11.3208 35.3392 13.4259 37.2594C 13.1475 38.4594 13 39.7119 13 41C 13 41.7449 13.0493 42.4779 13.1448 43.1957C 11.7875 45.3013 11 47.8087 11 50.5C 11 57.9558 17.0442 64 24.5 64C 24.8465 64 25.19 63.9869 25.5299 63.9613C 29.172 67.6819 34.3084 70 40 70C 45.6415 70 50.7374 67.7226 54.3734 64.0594C 55.6214 64.6621 57.0212 65 58.5 65C 63.7467 65 68 60.7467 68 55.5C 68 52.6285 66.726 50.0545 64.7124 48.3125C 67.9476 45.4694 70 41.2324 70 36.5C 70 32.4248 68.4781 28.717 65.9895 25.9503C 65.9965 25.801 66 25.6509 66 25.5C 66 20.2533 61.7467 16 56.5 16C 55.9205 16 55.3531 16.0519 54.8022 16.1513C 50.6815 12.3382 45.1199 10 39 10C 31.475 10 24.7941 13.5352 20.598 19.0005Z"></path>
                    </g>
                </g>
                <g id="cp_1_g-1_18kop7ncug4xt-stroke" fill="none" stroke-linecap="round" stroke-linejoin="round" stroke-miterlimit="4" stroke="#ffffff"
                   stroke-width="1" stroke-opacity="1">
                    <g>
                        <path d="M 80 40C 80 44.418278 83.581722 48 88 48C 92.418278 48 96 44.418278 96 40C 96 35.581722 92.418278 32 88 32C 83.581722 32 80 35.581722 80 40"></path>
                    </g>
                </g>
                <g id="cp_1_g-1_18kop7ncug4xt-stroke" fill="none" stroke-linecap="round" stroke-linejoin="round" stroke-miterlimit="4" stroke="#ffffff"
                   stroke-width="1" stroke-opacity="1">
                    <g>
                        <path d="M 114 40C 114 37.7909 112.2091 36 110 36C 107.7909 36 106 37.7909 106 40C 106 42.2091 107.7909 44 110 44C 112.2091 44 114 42.2091 114 40Z"></path>
                    </g>
                </g>
            </g>
            <g id="g-root-ic_face_me7nojcug45n-fill" data-item-order="0" transform="translate(387, 75)"></g>
            <g id="g-root-ic_face_me7nojcug45n-stroke" data-item-order="0" transform="translate(387, 75)">
                <g id="ic_face_me7nojcug45n-stroke" fill="none" stroke-linecap="round" stroke-linejoin="round" stroke-miterlimit="4" stroke="#2b3846"
                   stroke-width="1" stroke-opacity="1">
                    <g>
                        <path d="M 46.599998 39.681999C 43.599998 36.681999 37.599998 35.181999 34.599998 38.181999M 16.9 45.681999C 16.6 44.482002 16.6 43.281998 16.6 41.781998C 16.6 25.581999 29.799999 12.382 46 12.382C 62.199997 12.382 75.399994 25.581999 75.399994 41.781998C 75.399994 52.582001 69.699997 61.882004 61 66.981995M 40.449997 77.800003C 46.449997 75.399994 45.324997 70.111 44.125 65.311005L 53.677002 61.612C 55.891281 60.755096 57.049278 58.316589 56.314003 56.059002L 56.313999 56.058998C 55.93375 54.891376 55.08989 53.931606 53.980541 53.405022C 52.871193 52.878433 51.594067 52.831413 50.449001 53.275002L 32.875 60.084999C 31.375 60.685001 29.575001 59.485001 29.575001 57.985001L 29.458 55.144001C 29.410076 53.986492 28.88414 52.900726 28.005583 52.145561C 27.127028 51.390404 25.974579 51.03352 24.823002 51.160004L 24.823 51.16C 22.704519 51.393932 21.100885 53.183647 21.1 55.315002L 21.1 67.584999C 21.1 75.385002 28.299999 81.084999 35.800003 79.284996C 35.800003 79.284996 38.949997 78.399994 40.449997 77.800003ZM 31.825001 27.681999C 31.20368 27.681999 30.700001 27.178322 30.700001 26.556999C 30.700001 25.93568 31.20368 25.431999 31.825001 25.431999M 31.825001 27.681999C 32.44632 27.681999 32.950001 27.178322 32.950001 26.556999C 32.950001 25.93568 32.44632 25.431999 31.825001 25.431999M 47.800003 27.681999C 47.17868 27.681999 46.675003 27.178322 46.675003 26.556999C 46.675003 25.93568 47.17868 25.431999 47.800003 25.431999M 47.800003 27.681999C 48.421322 27.681999 48.925003 27.178322 48.925003 26.556999C 48.925003 25.93568 48.421322 25.431999 47.800003 25.431999"></path>
                    </g>
                </g>
            </g>
            <g id="g-root-ic_1_v9unxfcuhhj9-fill" data-item-order="0" transform="translate(267, 93)"></g>
            <g id="g-root-ic_1_v9unxfcuhhj9-stroke" data-item-order="0" transform="translate(267, 93)">
                <g id="ic_1_v9unxfcuhhj9-stroke" fill="none" stroke-linecap="round" stroke-linejoin="round" stroke-miterlimit="4" stroke="#ffffff"
                   stroke-width="1" stroke-opacity="1">
                    <g>
                        <path d="M 22.75 16.747L 45.25 16.747M 22.75 28.747L 45.25 28.747M 22.75 40.746998L 45.25 40.746998M 12.25 13.747L 15.25 13.747C 15.25 13.747 16.75 13.747 16.75 15.247L 16.75 18.247C 16.75 18.247 16.75 19.747 15.25 19.747L 12.25 19.747C 12.25 19.747 10.75 19.747 10.75 18.247L 10.75 15.247C 10.75 15.247 10.75 13.747 12.25 13.747M 12.25 25.747L 15.25 25.747C 15.25 25.747 16.75 25.747 16.75 27.247L 16.75 30.247C 16.75 30.247 16.75 31.747 15.25 31.747L 12.25 31.747C 12.25 31.747 10.75 31.747 10.75 30.247L 10.75 27.247C 10.75 27.247 10.75 25.747 12.25 25.747M 12.25 37.746998L 15.25 37.746998C 15.25 37.746998 16.75 37.746998 16.75 39.246998L 16.75 42.246998C 16.75 42.246998 16.75 43.746998 15.25 43.746998L 12.25 43.746998C 12.25 43.746998 10.75 43.746998 10.75 42.246998L 10.75 39.246998C 10.75 39.246998 10.75 37.746998 12.25 37.746998"></path>
                    </g>
                </g>
            </g>
            <g id="g-root-ic_2_dfga03cuhiq1-fill" data-item-order="0" transform="translate(543, 93)"></g>
            <g id="g-root-ic_2_dfga03cuhiq1-stroke" data-item-order="0" transform="translate(543, 93)">
                <g id="ic_2_dfga03cuhiq1-stroke" fill="none" stroke-linecap="round" stroke-linejoin="round" stroke-miterlimit="4" stroke="#ffffff"
                   stroke-width="1" stroke-opacity="1">
                    <g>
                        <path d="M 29.860001 30.235001C 30.120275 30.961695 30.252239 31.728104 30.25 32.5C 30.255806 35.728737 27.979151 38.511559 24.813255 39.145489C 21.647362 39.779423 18.474739 38.087753 17.236914 35.105717C 15.999087 32.12368 17.041107 28.682535 19.725296 26.888132C 22.409485 25.093729 25.98761 25.446264 28.27 27.730001M 34.510002 26.065001C 37.957603 31.857967 36.312759 39.332664 30.751846 43.143269C 25.190931 46.953869 17.626431 45.789848 13.468397 40.4837C 9.310364 35.177551 9.98881 27.554144 15.018517 23.06566C 20.048223 18.577177 27.699402 18.767277 32.5 23.5M 10.75 45.25L 14.485 41.514999M 32.514999 41.514999L 36.25 45.25M 34.645 21.355L 34.105 15.52L 38.875 10.75L 40.48 15.52L 45.25 17.125L 40.48 21.895L 34.645 21.355ZM 38.5 17.5L 23.5 32.5"></path>
                    </g>
                </g>
            </g>
            <g id="g-root-tx_taskorie_hye5k3cuhj46-fill" data-item-order="0" transform="translate(140.421875, 99)">
                <g id="tx_taskorie_hye5k3cuhj46-fill-merged" stroke="none" fill="#2b3846" fill-opacity="1">
                    <g>
                        <text style="font: 15px &quot;Inter Regular&quot;, sans-serif; white-space: pre;" transform="translate(112.578125, 19)" font-size="15px"
                              font-family="'Inter Regular', sans-serif">
                            <tspan x="-100.58" y="9" dominant-baseline="ideographic">Task Oriented</tspan>
                        </text>
                    </g>
                </g>
            </g>
            <g id="g-root-tx_taskorie_hye5k3cuhj46-stroke" data-item-order="0" transform="translate(140.421875, 99)"></g>
            <g id="g-root-tx_goalorie_1lxe5r7cuhjpd-fill" data-item-order="0" transform="translate(603, 99)">
                <g id="tx_goalorie_1lxe5r7cuhjpd-fill-merged" stroke="none" fill="#2b3846" fill-opacity="1">
                    <g>
                        <text style="font: 15px &quot;Inter Regular&quot;, sans-serif; white-space: pre;" transform="translate(10, 19)" font-size="15px"
                              font-family="'Inter Regular', sans-serif">
                            <tspan x="2" y="9" dominant-baseline="ideographic">Goal Oriented</tspan>
                        </text>
                    </g>
                </g>
            </g>
            <g id="g-root-tx_goalorie_1lxe5r7cuhjpd-stroke" data-item-order="0" transform="translate(603, 99)"></g>
        </g>
    </g>
</svg>
