<?xml version="1.0" encoding="utf-8" standalone="yes"?>
<!DOCTYPE svg PUBLIC "-//W3C//DTD SVG 1.1//EN" "http://www.w3.org/Graphics/SVG/1.1/DTD/svg11.dtd">
<svg style="fill:none;stroke:none;fill-rule:evenodd;clip-rule:evenodd;stroke-linecap:round;stroke-linejoin:round;stroke-miterlimit:1.5;" version="1.1"
     xmlns="http://www.w3.org/2000/svg" xmlns:xlink="http://www.w3.org/1999/xlink" width="1094" height="354" viewBox="0 0 1094 354">
    <style class="text-font-style fontImports" data-font-family="Inter">@font-face {font-family: 'Inter 500';src:
        url(https://fonts.napkin.ai/google-fonts/20250207/inter/inter_900.ttf) format("truetype");font-weight: 900;font-style: normal;}
    </style>
    <style class="text-font-style fontImports" data-font-family="Inter">@font-face {font-family: 'Inter Regular';src:
        url(https://fonts.napkin.ai/google-fonts/20250207/inter/inter_regular.ttf) format("truetype");font-weight: normal;font-style: normal;}
    </style>
    <g id="items" style="isolation: isolate">
        <g id="blend" style="mix-blend-mode: normal">
            <g id="g-root-cp_1_g-1_zlarcnd4cvlx-fill" data-item-order="-350294" transform="translate(21, 137)">
                <g id="cp_1_g-1_zlarcnd4cvlx-fill-merged" stroke="none" fill="#3f7763" fill-opacity="1">
                    <g>
                        <path d="M10 52C10 28.804 28.804 10 52 10 H100C116.827 10 131.342 19.895 138.045 34.184C133.829 34.577 129.821 35.581 126.06 37.128C120.892 28.09 111.157 22 100 22 H52C35.431 22 22 35.431 22 52C22 68.568 35.431 82 52 82C68.136 82 84.29 82.221 100.425 81.997C104.611 81.939 108.589 81.024 112.193 79.419C122.685 74.746 130 64.227 130 52C130 50.844 129.935 49.703 129.807 48.581C133.411 46.976 137.389 46.061 141.575 46.003C141.855 47.962 142 49.964 142 52C142 69.554 131.231 84.593 115.939 90.87C112.199 92.405 108.189 93.416 104 93.812C102.683 93.936 101.349 94 100 94 H52C28.804 94 10 75.196 10 52"></path>
                    </g>
                </g>
            </g>
            <g id="g-root-cp_1_g-1_zlarcnd4cvlx-stroke" data-item-order="-350294" transform="translate(21, 137)">
                <g id="cp_1_g-1_zlarcnd4cvlx-stroke" fill="none" stroke-linecap="round" stroke-linejoin="round" stroke-miterlimit="4" stroke="#ffffff"
                   stroke-width="1" stroke-opacity="1">
                    <g>
                        <path d="M 10 52C 10 28.804 28.804 10 52 10L 100 10C 116.8266 10 131.3421 19.8951 138.045 34.1838C 133.829 34.5775 129.8212 35.581 126.0602 37.128C 120.8915 28.0904 111.157 22 100 22L 52 22C 35.4315 22 22 35.4315 22 52C 22 68.5685 35.4315 82 52 82C 68.1364 82 84.2902 82.221 100.4249 81.9971C 104.6106 81.9389 108.589 81.0236 112.1927 79.4188C 122.6851 74.7459 130 64.2272 130 52C 130 50.844 129.9346 49.7032 129.8073 48.5813C 133.411 46.9764 137.3894 46.0611 141.5751 46.0029C 141.8551 47.9616 142 49.9639 142 52C 142 69.5541 131.2308 84.5929 115.9388 90.8701C 112.1992 92.4051 108.1892 93.4162 104 93.812C 102.6834 93.9364 101.3491 94 100 94L 52 94C 28.804 94 10 75.196 10 52Z"></path>
                    </g>
                </g>
            </g>
            <g id="g-root-cp_2_g-2_qpnr3rd4cwem-fill" data-item-order="-350290" transform="translate(111, 161)">
                <g id="cp_2_g-2_qpnr3rd4cwem-fill-merged" stroke="none" fill="#3f886e" fill-opacity="1">
                    <g>
                        <path d="M126.062 66.87C129.801 68.405 133.811 69.416 138 69.812C131.345 84.103 116.828 94 100 94 H52C35.172 94 20.655 84.103 13.953 69.812C18.189 69.416 22.199 68.405 25.938 66.87C31.107 75.909 40.842 82 52 82 H100C111.158 82 120.893 75.909 126.062 66.87 M100 10C101.334 10 102.653 10.062 103.955 10.184C108.171 10.577 112.179 11.581 115.939 13.128C131.217 19.412 142 34.457 142 52C142 54.036 141.855 56.038 141.575 57.997C137.39 57.939 133.411 57.024 129.808 55.419C129.935 54.297 130 53.156 130 52C130 39.773 122.685 29.254 112.192 24.581C108.589 22.976 104.61 22.061 100.425 22.003C92.287 21.89 84.143 21.905 76 21.938C67.857 21.905 59.713 21.89 51.575 22.003C47.39 22.061 43.411 22.976 39.808 24.581C29.315 29.254 22 39.773 22 52C22 53.156 22.065 54.297 22.192 55.419C18.589 57.024 14.61 57.939 10.425 57.997C10.145 56.038 10 54.036 10 52C10 34.457 20.784 19.412 36.061 13.128C39.821 11.581 43.829 10.577 48.045 10.184C49.347 10.062 50.666 10 52 10 H100"></path>
                    </g>
                </g>
            </g>
            <g id="g-root-cp_2_g-2_qpnr3rd4cwem-stroke" data-item-order="-350290" transform="translate(111, 161)">
                <g id="cp_2_g-2_qpnr3rd4cwem-stroke" fill="none" stroke-linecap="round" stroke-linejoin="round" stroke-miterlimit="4" stroke="#ffffff"
                   stroke-width="1" stroke-opacity="1">
                    <g>
                        <path d="M 52 82C 40.8422 82 31.1071 75.9087 25.9388 66.8701C 22.1992 68.4051 18.1892 69.4162 14 69.812L 13.9531 69.812C 20.655 84.103 35.1717 94 52 94L 76 94L 100 94C 116.8283 94 131.345 84.103 138.047 69.812L 138 69.812C 133.8108 69.4162 129.8008 68.4051 126.0612 66.8701C 120.8929 75.9087 111.1578 82 100 82L 76 82L 52 82ZM 10.4249 57.9971C 10.1449 56.0384 10 54.0361 10 52C 10 34.4567 20.7831 19.4121 36.0602 13.128C 39.8212 11.581 43.829 10.5775 48.045 10.1838C 49.347 10.0622 50.6662 10 52 10L 76 10L 100 10C 101.3338 10 102.653 10.0622 103.955 10.1838C 108.171 10.5775 112.1788 11.581 115.9398 13.128C 131.2169 19.4121 142 34.4567 142 52C 142 54.0361 141.8551 56.0384 141.5751 57.9971C 137.3894 57.9389 133.411 57.0236 129.8073 55.4188C 129.9346 54.2968 130 53.156 130 52C 130 39.7728 122.6851 29.2541 112.1927 24.5813C 108.589 22.9764 104.6106 22.0611 100.4249 22.0029C 92.2868 21.89 84.1431 21.9048 76 21.9385C 67.8569 21.9048 59.7132 21.89 51.5751 22.0029C 47.3894 22.0611 43.411 22.9764 39.8073 24.5813C 29.3149 29.2541 22 39.7728 22 52C 22 53.156 22.0654 54.2968 22.1927 55.4188C 18.589 57.0236 14.6106 57.9389 10.4249 57.9971ZM 10.4249 57.9971C 10.2835 57.999 10.1419 58 10 58M 141.5751 57.9971C 141.7165 57.999 141.8581 58 142 58"></path>
                    </g>
                </g>
            </g>
            <g id="g-root-cp_3_g-3_qpnr3rd4cwen-fill" data-item-order="-350284" transform="translate(201, 137)">
                <g id="cp_3_g-3_qpnr3rd4cwen-fill-merged" stroke="none" fill="#3f9a79" fill-opacity="1">
                    <g>
                        <path d="M141.575 46.003C141.855 47.962 142 49.964 142 52C142 69.543 131.217 84.588 115.939 90.872C112.179 92.419 108.171 93.423 103.955 93.816C102.653 93.938 101.334 94 100 94 H52C50.666 94 49.347 93.938 48.045 93.816C43.829 93.423 39.821 92.419 36.061 90.872C20.784 84.588 10 69.543 10 52C10 49.964 10.145 47.962 10.425 46.003C14.61 46.061 18.589 46.976 22.192 48.581C22.065 49.703 22 50.844 22 52C22 64.227 29.315 74.746 39.808 79.419C43.411 81.024 47.39 81.939 51.575 81.997C59.713 82.11 67.857 82.095 76 82.062C84.143 82.095 92.287 82.11 100.425 81.997C104.61 81.939 108.589 81.024 112.192 79.419C122.685 74.746 130 64.227 130 52C130 50.844 129.935 49.703 129.808 48.581C133.411 46.976 137.39 46.061 141.575 46.003 M100 10C116.828 10 131.345 19.897 138.047 34.188C133.811 34.584 129.801 35.595 126.062 37.13C120.893 28.091 111.158 22 100 22 H52C40.842 22 31.107 28.091 25.938 37.13C22.199 35.595 18.189 34.584 14 34.188C20.655 19.897 35.172 10 52 10 H100"></path>
                    </g>
                </g>
            </g>
            <g id="g-root-cp_3_g-3_qpnr3rd4cwen-stroke" data-item-order="-350284" transform="translate(201, 137)">
                <g id="cp_3_g-3_qpnr3rd4cwen-stroke" fill="none" stroke-linecap="round" stroke-linejoin="round" stroke-miterlimit="4" stroke="#ffffff"
                   stroke-width="1" stroke-opacity="1">
                    <g>
                        <path d="M 100 22C 111.1578 22 120.8929 28.0913 126.0612 37.1299C 129.8008 35.5949 133.8108 34.5838 138 34.188L 138.047 34.188C 131.345 19.897 116.8283 10 100 10L 52 10C 35.1717 10 20.655 19.897 13.9531 34.188L 14 34.188C 18.1892 34.5838 22.1992 35.5949 25.9388 37.1299C 31.1072 28.0913 40.8422 22 52 22L 100 22ZM 141.5751 46.003C 141.8551 47.9616 142 49.9639 142 52C 142 69.5433 131.2169 84.5879 115.9398 90.872C 112.1788 92.419 108.171 93.4225 103.955 93.8162C 102.653 93.9378 101.3338 94 100 94L 52 94C 50.6662 94 49.347 93.9378 48.045 93.8162C 43.829 93.4225 39.8211 92.419 36.0602 90.872C 20.7831 84.5879 10 69.5433 10 52C 10 49.9639 10.1449 47.9616 10.4249 46.0029C 14.6106 46.0611 18.589 46.9764 22.1927 48.5812C 22.0654 49.7032 22 50.844 22 52C 22 64.2272 29.3149 74.7459 39.8073 79.4187C 43.411 81.0236 47.3894 81.9389 51.5751 81.997C 59.7132 82.11 67.8569 82.0952 76 82.0615C 84.1431 82.0952 92.2868 82.11 100.4249 81.9971C 104.6106 81.9389 108.589 81.0236 112.1927 79.4188C 122.6851 74.7459 130 64.2272 130 52C 130 50.844 129.9346 49.7032 129.8073 48.5813C 133.411 46.9764 137.3894 46.0611 141.5751 46.003ZM 141.5751 46.003C 141.7165 46.001 141.8581 46 142 46M 10.4249 46.0029C 10.2835 46.001 10.1419 46 10.000001 46"></path>
                    </g>
                </g>
            </g>
            <g id="g-root-cp_4_g-4_v5h987d4cwe8-fill" data-item-order="-350278" transform="translate(291, 161)">
                <g id="cp_4_g-4_v5h987d4cwe8-fill-merged" stroke="none" fill="#3caa82" fill-opacity="1">
                    <g>
                        <path d="M126.062 66.87C129.801 68.405 133.811 69.416 138 69.812C131.345 84.103 116.828 94 100 94 H52C35.172 94 20.655 84.103 13.953 69.812C18.189 69.416 22.199 68.405 25.938 66.87C31.107 75.909 40.842 82 52 82 H100C111.158 82 120.893 75.909 126.062 66.87 M100 10C101.334 10 102.653 10.062 103.955 10.184C108.171 10.577 112.179 11.581 115.939 13.128C131.217 19.412 142 34.457 142 52C142 54.036 141.855 56.038 141.575 57.997C137.39 57.939 133.411 57.024 129.808 55.419C129.935 54.297 130 53.156 130 52C130 39.773 122.685 29.254 112.192 24.581C108.589 22.976 104.61 22.061 100.425 22.003C92.287 21.89 84.143 21.905 76 21.938C67.857 21.905 59.713 21.89 51.575 22.003C47.39 22.061 43.411 22.976 39.808 24.581C29.315 29.254 22 39.773 22 52C22 53.156 22.065 54.297 22.192 55.419C18.589 57.024 14.61 57.939 10.425 57.997C10.145 56.038 10 54.036 10 52C10 34.457 20.784 19.412 36.061 13.128C39.821 11.581 43.829 10.577 48.045 10.184C49.347 10.062 50.666 10 52 10 H100"></path>
                    </g>
                </g>
            </g>
            <g id="g-root-cp_4_g-4_v5h987d4cwe8-stroke" data-item-order="-350278" transform="translate(291, 161)">
                <g id="cp_4_g-4_v5h987d4cwe8-stroke" fill="none" stroke-linecap="round" stroke-linejoin="round" stroke-miterlimit="4" stroke="#ffffff"
                   stroke-width="1" stroke-opacity="1">
                    <g>
                        <path d="M 52 82C 40.8422 82 31.1071 75.9087 25.9388 66.8701C 22.1992 68.4051 18.1892 69.4162 14 69.812L 13.9531 69.812C 20.655 84.103 35.1717 94 52 94L 76 94L 100 94C 116.8283 94 131.345 84.103 138.047 69.812L 138 69.812C 133.8108 69.4162 129.8008 68.4051 126.0612 66.8701C 120.8929 75.9087 111.1578 82 100 82L 76 82L 52 82ZM 10.4249 57.9971C 10.1449 56.0384 10 54.0361 10 52C 10 34.4567 20.7831 19.4121 36.0602 13.128C 39.8212 11.581 43.829 10.5775 48.045 10.1838C 49.347 10.0622 50.6662 10 52 10L 76 10L 100 10C 101.3338 10 102.653 10.0622 103.955 10.1838C 108.171 10.5775 112.1788 11.581 115.9398 13.128C 131.2169 19.4121 142 34.4567 142 52C 142 54.0361 141.8551 56.0384 141.5751 57.9971C 137.3894 57.9389 133.411 57.0236 129.8073 55.4188C 129.9346 54.2968 130 53.156 130 52C 130 39.7728 122.6851 29.2541 112.1927 24.5813C 108.589 22.9764 104.6106 22.0611 100.4249 22.0029C 92.2868 21.89 84.1431 21.9048 76 21.9385C 67.8569 21.9048 59.7132 21.89 51.5751 22.0029C 47.3894 22.0611 43.411 22.9764 39.8073 24.5813C 29.3149 29.2541 22 39.7728 22 52C 22 53.156 22.0654 54.2968 22.1927 55.4188C 18.589 57.0236 14.6106 57.9389 10.4249 57.9971ZM 10.4249 57.9971C 10.2835 57.999 10.1419 58 10 58M 141.5751 57.9971C 141.7165 57.999 141.8581 58 142 58"></path>
                    </g>
                </g>
            </g>
            <g id="g-root-cp_5_g-5_m9u8zbd4cx6x-fill" data-item-order="-350272" transform="translate(381, 137)">
                <g id="cp_5_g-5_m9u8zbd4cx6x-fill-merged" stroke="none" fill="#38bb8b" fill-opacity="1">
                    <g>
                        <path d="M141.575 46.003C141.855 47.962 142 49.964 142 52C142 69.543 131.217 84.588 115.939 90.872C112.179 92.419 108.171 93.423 103.955 93.816C102.653 93.938 101.334 94 100 94 H52C50.666 94 49.347 93.938 48.045 93.816C43.829 93.423 39.821 92.419 36.061 90.872C20.784 84.588 10 69.543 10 52C10 49.964 10.145 47.962 10.425 46.003C14.61 46.061 18.589 46.976 22.192 48.581C22.065 49.703 22 50.844 22 52C22 64.227 29.315 74.746 39.808 79.419C43.411 81.024 47.39 81.939 51.575 81.997C59.713 82.11 67.857 82.095 76 82.062C84.143 82.095 92.287 82.11 100.425 81.997C104.61 81.939 108.589 81.024 112.192 79.419C122.685 74.746 130 64.227 130 52C130 50.844 129.935 49.703 129.808 48.581C133.411 46.976 137.39 46.061 141.575 46.003 M100 10C116.828 10 131.345 19.897 138.047 34.188C133.811 34.584 129.801 35.595 126.062 37.13C120.893 28.091 111.158 22 100 22 H52C40.842 22 31.107 28.091 25.938 37.13C22.199 35.595 18.189 34.584 14 34.188C20.655 19.897 35.172 10 52 10 H100"></path>
                    </g>
                </g>
            </g>
            <g id="g-root-cp_5_g-5_m9u8zbd4cx6x-stroke" data-item-order="-350272" transform="translate(381, 137)">
                <g id="cp_5_g-5_m9u8zbd4cx6x-stroke" fill="none" stroke-linecap="round" stroke-linejoin="round" stroke-miterlimit="4" stroke="#ffffff"
                   stroke-width="1" stroke-opacity="1">
                    <g>
                        <path d="M 100 22C 111.1578 22 120.8929 28.0913 126.0612 37.1299C 129.8008 35.5949 133.8108 34.5838 138 34.188L 138.047 34.188C 131.345 19.897 116.8283 10 100 10L 52 10C 35.1717 10 20.655 19.897 13.9531 34.188L 14 34.188C 18.1892 34.5838 22.1992 35.5949 25.9388 37.1299C 31.1072 28.0913 40.8422 22 52 22L 100 22ZM 141.5751 46.003C 141.8551 47.9616 142 49.9639 142 52C 142 69.5433 131.2169 84.5879 115.9398 90.872C 112.1788 92.419 108.171 93.4225 103.955 93.8162C 102.653 93.9378 101.3338 94 100 94L 52 94C 50.6662 94 49.347 93.9378 48.045 93.8162C 43.829 93.4225 39.8211 92.419 36.0602 90.872C 20.7831 84.5879 10 69.5433 10 52C 10 49.9639 10.1449 47.9616 10.4249 46.0029C 14.6106 46.0611 18.589 46.9764 22.1927 48.5812C 22.0654 49.7032 22 50.844 22 52C 22 64.2272 29.3149 74.7459 39.8073 79.4187C 43.411 81.0236 47.3894 81.9389 51.5751 81.997C 59.7132 82.11 67.8569 82.0952 76 82.0615C 84.1431 82.0952 92.2868 82.11 100.4249 81.9971C 104.6106 81.9389 108.589 81.0236 112.1927 79.4188C 122.6851 74.7459 130 64.2272 130 52C 130 50.844 129.9346 49.7032 129.8073 48.5813C 133.411 46.9764 137.3894 46.0611 141.5751 46.003ZM 141.5751 46.003C 141.7165 46.001 141.8581 46 142 46M 10.4249 46.0029C 10.2835 46.001 10.1419 46 10.000001 46"></path>
                    </g>
                </g>
            </g>
            <g id="g-root-cp_6_g-6_m9u8zbd4cx6y-fill" data-item-order="-350266" transform="translate(471, 161)">
                <g id="cp_6_g-6_m9u8zbd4cx6y-fill-merged" stroke="none" fill="#34cc94" fill-opacity="1">
                    <g>
                        <path d="M126.062 66.87C129.801 68.405 133.811 69.416 138 69.812C131.345 84.103 116.828 94 100 94 H52C35.172 94 20.655 84.103 13.953 69.812C18.189 69.416 22.199 68.405 25.938 66.87C31.107 75.909 40.842 82 52 82 H100C111.158 82 120.893 75.909 126.062 66.87 M100 10C101.334 10 102.653 10.062 103.955 10.184C108.171 10.577 112.179 11.581 115.939 13.128C131.217 19.412 142 34.457 142 52C142 54.036 141.855 56.038 141.575 57.997C137.39 57.939 133.411 57.024 129.808 55.419C129.935 54.297 130 53.156 130 52C130 39.773 122.685 29.254 112.192 24.581C108.589 22.976 104.61 22.061 100.425 22.003C92.287 21.89 84.143 21.905 76 21.938C67.857 21.905 59.713 21.89 51.575 22.003C47.39 22.061 43.411 22.976 39.808 24.581C29.315 29.254 22 39.773 22 52C22 53.156 22.065 54.297 22.192 55.419C18.589 57.024 14.61 57.939 10.425 57.997C10.145 56.038 10 54.036 10 52C10 34.457 20.784 19.412 36.061 13.128C39.821 11.581 43.829 10.577 48.045 10.184C49.347 10.062 50.666 10 52 10 H100"></path>
                    </g>
                </g>
            </g>
            <g id="g-root-cp_6_g-6_m9u8zbd4cx6y-stroke" data-item-order="-350266" transform="translate(471, 161)">
                <g id="cp_6_g-6_m9u8zbd4cx6y-stroke" fill="none" stroke-linecap="round" stroke-linejoin="round" stroke-miterlimit="4" stroke="#ffffff"
                   stroke-width="1" stroke-opacity="1">
                    <g>
                        <path d="M 52 82C 40.8422 82 31.1071 75.9087 25.9388 66.8701C 22.1992 68.4051 18.1892 69.4162 14 69.812L 13.9531 69.812C 20.655 84.103 35.1717 94 52 94L 76 94L 100 94C 116.8283 94 131.345 84.103 138.047 69.812L 138 69.812C 133.8108 69.4162 129.8008 68.4051 126.0612 66.8701C 120.8929 75.9087 111.1578 82 100 82L 76 82L 52 82ZM 10.4249 57.9971C 10.1449 56.0384 10 54.0361 10 52C 10 34.4567 20.7831 19.4121 36.0602 13.128C 39.8212 11.581 43.829 10.5775 48.045 10.1838C 49.347 10.0622 50.6662 10 52 10L 76 10L 100 10C 101.3338 10 102.653 10.0622 103.955 10.1838C 108.171 10.5775 112.1788 11.581 115.9398 13.128C 131.2169 19.4121 142 34.4567 142 52C 142 54.0361 141.8551 56.0384 141.5751 57.9971C 137.3894 57.9389 133.411 57.0236 129.8073 55.4188C 129.9346 54.2968 130 53.156 130 52C 130 39.7728 122.6851 29.2541 112.1927 24.5813C 108.589 22.9764 104.6106 22.0611 100.4249 22.0029C 92.2868 21.89 84.1431 21.9048 76 21.9385C 67.8569 21.9048 59.7132 21.89 51.5751 22.0029C 47.3894 22.0611 43.411 22.9764 39.8073 24.5813C 29.3149 29.2541 22 39.7728 22 52C 22 53.156 22.0654 54.2968 22.1927 55.4188C 18.589 57.0236 14.6106 57.9389 10.4249 57.9971ZM 10.4249 57.9971C 10.2835 57.999 10.1419 58 10 58M 141.5751 57.9971C 141.7165 57.999 141.8581 58 142 58"></path>
                    </g>
                </g>
            </g>
            <g id="g-root-cp_7_g-7_m9u8zbd4cx6z-fill" data-item-order="-350260" transform="translate(561, 137)">
                <g id="cp_7_g-7_m9u8zbd4cx6z-fill-merged" stroke="none" fill="#34d69b" fill-opacity="1">
                    <g>
                        <path d="M141.575 46.003C141.855 47.962 142 49.964 142 52C142 69.543 131.217 84.588 115.939 90.872C112.179 92.419 108.171 93.423 103.955 93.816C102.653 93.938 101.334 94 100 94 H52C50.666 94 49.347 93.938 48.045 93.816C43.829 93.423 39.821 92.419 36.061 90.872C20.784 84.588 10 69.543 10 52C10 49.964 10.145 47.962 10.425 46.003C14.61 46.061 18.589 46.976 22.192 48.581C22.065 49.703 22 50.844 22 52C22 64.227 29.315 74.746 39.808 79.419C43.411 81.024 47.39 81.939 51.575 81.997C59.713 82.11 67.857 82.095 76 82.062C84.143 82.095 92.287 82.11 100.425 81.997C104.61 81.939 108.589 81.024 112.192 79.419C122.685 74.746 130 64.227 130 52C130 50.844 129.935 49.703 129.808 48.581C133.411 46.976 137.39 46.061 141.575 46.003 M100 10C116.828 10 131.345 19.897 138.047 34.188C133.811 34.584 129.801 35.595 126.062 37.13C120.893 28.091 111.158 22 100 22 H52C40.842 22 31.107 28.091 25.938 37.13C22.199 35.595 18.189 34.584 14 34.188C20.655 19.897 35.172 10 52 10 H100"></path>
                    </g>
                </g>
            </g>
            <g id="g-root-cp_7_g-7_m9u8zbd4cx6z-stroke" data-item-order="-350260" transform="translate(561, 137)">
                <g id="cp_7_g-7_m9u8zbd4cx6z-stroke" fill="none" stroke-linecap="round" stroke-linejoin="round" stroke-miterlimit="4" stroke="#ffffff"
                   stroke-width="1" stroke-opacity="1">
                    <g>
                        <path d="M 100 22C 111.1578 22 120.8929 28.0913 126.0612 37.1299C 129.8008 35.5949 133.8108 34.5838 138 34.188L 138.047 34.188C 131.345 19.897 116.8283 10 100 10L 52 10C 35.1717 10 20.655 19.897 13.9531 34.188L 14 34.188C 18.1892 34.5838 22.1992 35.5949 25.9388 37.1299C 31.1072 28.0913 40.8422 22 52 22L 100 22ZM 141.5751 46.003C 141.8551 47.9616 142 49.9639 142 52C 142 69.5433 131.2169 84.5879 115.9398 90.872C 112.1788 92.419 108.171 93.4225 103.955 93.8162C 102.653 93.9378 101.3338 94 100 94L 52 94C 50.6662 94 49.347 93.9378 48.045 93.8162C 43.829 93.4225 39.8211 92.419 36.0602 90.872C 20.7831 84.5879 10 69.5433 10 52C 10 49.9639 10.1449 47.9616 10.4249 46.0029C 14.6106 46.0611 18.589 46.9764 22.1927 48.5812C 22.0654 49.7032 22 50.844 22 52C 22 64.2272 29.3149 74.7459 39.8073 79.4187C 43.411 81.0236 47.3894 81.9389 51.5751 81.997C 59.7132 82.11 67.8569 82.0952 76 82.0615C 84.1431 82.0952 92.2868 82.11 100.4249 81.9971C 104.6106 81.9389 108.589 81.0236 112.1927 79.4188C 122.6851 74.7459 130 64.2272 130 52C 130 50.844 129.9346 49.7032 129.8073 48.5813C 133.411 46.9764 137.3894 46.0611 141.5751 46.003ZM 141.5751 46.003C 141.7165 46.001 141.8581 46 142 46M 10.4249 46.0029C 10.2835 46.001 10.1419 46 10.000001 46"></path>
                    </g>
                </g>
            </g>
            <g id="g-root-cp_8_g-8_hu0quvd4cxz8-fill" data-item-order="-350254" transform="translate(651, 161)">
                <g id="cp_8_g-8_hu0quvd4cxz8-fill-merged" stroke="none" fill="#35dfa1" fill-opacity="1">
                    <g>
                        <path d="M126.062 66.87C129.801 68.405 133.811 69.416 138 69.812C131.345 84.103 116.828 94 100 94 H52C35.172 94 20.655 84.103 13.953 69.812C18.189 69.416 22.199 68.405 25.938 66.87C31.107 75.909 40.842 82 52 82 H100C111.158 82 120.893 75.909 126.062 66.87 M100 10C101.334 10 102.653 10.062 103.955 10.184C108.171 10.577 112.179 11.581 115.939 13.128C131.217 19.412 142 34.457 142 52C142 54.036 141.855 56.038 141.575 57.997C137.39 57.939 133.411 57.024 129.808 55.419C129.935 54.297 130 53.156 130 52C130 39.773 122.685 29.254 112.192 24.581C108.589 22.976 104.61 22.061 100.425 22.003C92.287 21.89 84.143 21.905 76 21.938C67.857 21.905 59.713 21.89 51.575 22.003C47.39 22.061 43.411 22.976 39.808 24.581C29.315 29.254 22 39.773 22 52C22 53.156 22.065 54.297 22.192 55.419C18.589 57.024 14.61 57.939 10.425 57.997C10.145 56.038 10 54.036 10 52C10 34.457 20.784 19.412 36.061 13.128C39.821 11.581 43.829 10.577 48.045 10.184C49.347 10.062 50.666 10 52 10 H100"></path>
                    </g>
                </g>
            </g>
            <g id="g-root-cp_8_g-8_hu0quvd4cxz8-stroke" data-item-order="-350254" transform="translate(651, 161)">
                <g id="cp_8_g-8_hu0quvd4cxz8-stroke" fill="none" stroke-linecap="round" stroke-linejoin="round" stroke-miterlimit="4" stroke="#ffffff"
                   stroke-width="1" stroke-opacity="1">
                    <g>
                        <path d="M 52 82C 40.8422 82 31.1071 75.9087 25.9388 66.8701C 22.1992 68.4051 18.1892 69.4162 14 69.812L 13.9531 69.812C 20.655 84.103 35.1717 94 52 94L 76 94L 100 94C 116.8283 94 131.345 84.103 138.047 69.812L 138 69.812C 133.8108 69.4162 129.8008 68.4051 126.0612 66.8701C 120.8929 75.9087 111.1578 82 100 82L 76 82L 52 82ZM 10.4249 57.9971C 10.1449 56.0384 10 54.0361 10 52C 10 34.4567 20.7831 19.4121 36.0602 13.128C 39.8212 11.581 43.829 10.5775 48.045 10.1838C 49.347 10.0622 50.6662 10 52 10L 76 10L 100 10C 101.3338 10 102.653 10.0622 103.955 10.1838C 108.171 10.5775 112.1788 11.581 115.9398 13.128C 131.2169 19.4121 142 34.4567 142 52C 142 54.0361 141.8551 56.0384 141.5751 57.9971C 137.3894 57.9389 133.411 57.0236 129.8073 55.4188C 129.9346 54.2968 130 53.156 130 52C 130 39.7728 122.6851 29.2541 112.1927 24.5813C 108.589 22.9764 104.6106 22.0611 100.4249 22.0029C 92.2868 21.89 84.1431 21.9048 76 21.9385C 67.8569 21.9048 59.7132 21.89 51.5751 22.0029C 47.3894 22.0611 43.411 22.9764 39.8073 24.5813C 29.3149 29.2541 22 39.7728 22 52C 22 53.156 22.0654 54.2968 22.1927 55.4188C 18.589 57.0236 14.6106 57.9389 10.4249 57.9971ZM 10.4249 57.9971C 10.2835 57.999 10.1419 58 10 58M 141.5751 57.9971C 141.7165 57.999 141.8581 58 142 58"></path>
                    </g>
                </g>
            </g>
            <g id="g-root-cp_9_g-9_hu0quvd4cxz9-fill" data-item-order="-350248" transform="translate(741, 137)">
                <g id="cp_9_g-9_hu0quvd4cxz9-fill-merged" stroke="none" fill="#42eaac" fill-opacity="1">
                    <g>
                        <path d="M141.575 46.003C141.855 47.962 142 49.964 142 52C142 69.543 131.217 84.588 115.939 90.872C112.179 92.419 108.171 93.423 103.955 93.816C102.653 93.938 101.334 94 100 94 H52C50.666 94 49.347 93.938 48.045 93.816C43.829 93.423 39.821 92.419 36.061 90.872C20.784 84.588 10 69.543 10 52C10 49.964 10.145 47.962 10.425 46.003C14.61 46.061 18.589 46.976 22.192 48.581C22.065 49.703 22 50.844 22 52C22 64.227 29.315 74.746 39.808 79.419C43.411 81.024 47.39 81.939 51.575 81.997C59.713 82.11 67.857 82.095 76 82.062C84.143 82.095 92.287 82.11 100.425 81.997C104.61 81.939 108.589 81.024 112.192 79.419C122.685 74.746 130 64.227 130 52C130 50.844 129.935 49.703 129.808 48.581C133.411 46.976 137.39 46.061 141.575 46.003 M100 10C116.828 10 131.345 19.897 138.047 34.188C133.811 34.584 129.801 35.595 126.062 37.13C120.893 28.091 111.158 22 100 22 H52C40.842 22 31.107 28.091 25.938 37.13C22.199 35.595 18.189 34.584 14 34.188C20.655 19.897 35.172 10 52 10 H100"></path>
                    </g>
                </g>
            </g>
            <g id="g-root-cp_9_g-9_hu0quvd4cxz9-stroke" data-item-order="-350248" transform="translate(741, 137)">
                <g id="cp_9_g-9_hu0quvd4cxz9-stroke" fill="none" stroke-linecap="round" stroke-linejoin="round" stroke-miterlimit="4" stroke="#ffffff"
                   stroke-width="1" stroke-opacity="1">
                    <g>
                        <path d="M 100 22C 111.1578 22 120.8929 28.0913 126.0612 37.1299C 129.8008 35.5949 133.8108 34.5838 138 34.188L 138.047 34.188C 131.345 19.897 116.8283 10 100 10L 52 10C 35.1717 10 20.655 19.897 13.9531 34.188L 14 34.188C 18.1892 34.5838 22.1992 35.5949 25.9388 37.1299C 31.1072 28.0913 40.8422 22 52 22L 100 22ZM 141.5751 46.003C 141.8551 47.9616 142 49.9639 142 52C 142 69.5433 131.2169 84.5879 115.9398 90.872C 112.1788 92.419 108.171 93.4225 103.955 93.8162C 102.653 93.9378 101.3338 94 100 94L 52 94C 50.6662 94 49.347 93.9378 48.045 93.8162C 43.829 93.4225 39.8211 92.419 36.0602 90.872C 20.7831 84.5879 10 69.5433 10 52C 10 49.9639 10.1449 47.9616 10.4249 46.0029C 14.6106 46.0611 18.589 46.9764 22.1927 48.5812C 22.0654 49.7032 22 50.844 22 52C 22 64.2272 29.3149 74.7459 39.8073 79.4187C 43.411 81.0236 47.3894 81.9389 51.5751 81.997C 59.7132 82.11 67.8569 82.0952 76 82.0615C 84.1431 82.0952 92.2868 82.11 100.4249 81.9971C 104.6106 81.9389 108.589 81.0236 112.1927 79.4188C 122.6851 74.7459 130 64.2272 130 52C 130 50.844 129.9346 49.7032 129.8073 48.5813C 133.411 46.9764 137.3894 46.0611 141.5751 46.003ZM 141.5751 46.003C 141.7165 46.001 141.8581 46 142 46M 10.4249 46.0029C 10.2835 46.001 10.1419 46 10.000001 46"></path>
                    </g>
                </g>
            </g>
            <g id="g-root-cp_10_g-10_hu0quvd4cxza-fill" data-item-order="-350242" transform="translate(831, 161)">
                <g id="cp_10_g-10_hu0quvd4cxza-fill-merged" stroke="none" fill="#53f3b9" fill-opacity="1">
                    <g>
                        <path d="M126.062 66.87C129.801 68.405 133.811 69.416 138 69.812C131.345 84.103 116.828 94 100 94 H52C35.172 94 20.655 84.103 13.953 69.812C18.189 69.416 22.199 68.405 25.938 66.87C31.107 75.909 40.842 82 52 82 H100C111.158 82 120.893 75.909 126.062 66.87 M100 10C101.334 10 102.653 10.062 103.955 10.184C108.171 10.577 112.179 11.581 115.939 13.128C131.217 19.412 142 34.457 142 52C142 54.036 141.855 56.038 141.575 57.997C137.39 57.939 133.411 57.024 129.808 55.419C129.935 54.297 130 53.156 130 52C130 39.773 122.685 29.254 112.192 24.581C108.589 22.976 104.61 22.061 100.425 22.003C92.287 21.89 84.143 21.905 76 21.938C67.857 21.905 59.713 21.89 51.575 22.003C47.39 22.061 43.411 22.976 39.808 24.581C29.315 29.254 22 39.773 22 52C22 53.156 22.065 54.297 22.192 55.419C18.589 57.024 14.61 57.939 10.425 57.997C10.145 56.038 10 54.036 10 52C10 34.457 20.784 19.412 36.061 13.128C39.821 11.581 43.829 10.577 48.045 10.184C49.347 10.062 50.666 10 52 10 H100"></path>
                    </g>
                </g>
            </g>
            <g id="g-root-cp_10_g-10_hu0quvd4cxza-stroke" data-item-order="-350242" transform="translate(831, 161)">
                <g id="cp_10_g-10_hu0quvd4cxza-stroke" fill="none" stroke-linecap="round" stroke-linejoin="round" stroke-miterlimit="4" stroke="#ffffff"
                   stroke-width="1" stroke-opacity="1">
                    <g>
                        <path d="M 52 82C 40.8422 82 31.1071 75.9087 25.9388 66.8701C 22.1992 68.4051 18.1892 69.4162 14 69.812L 13.9531 69.812C 20.655 84.103 35.1717 94 52 94L 76 94L 100 94C 116.8283 94 131.345 84.103 138.047 69.812L 138 69.812C 133.8108 69.4162 129.8008 68.4051 126.0612 66.8701C 120.8929 75.9087 111.1578 82 100 82L 76 82L 52 82ZM 10.4249 57.9971C 10.1449 56.0384 10 54.0361 10 52C 10 34.4567 20.7831 19.4121 36.0602 13.128C 39.8212 11.581 43.829 10.5775 48.045 10.1838C 49.347 10.0622 50.6662 10 52 10L 76 10L 100 10C 101.3338 10 102.653 10.0622 103.955 10.1838C 108.171 10.5775 112.1788 11.581 115.9398 13.128C 131.2169 19.4121 142 34.4567 142 52C 142 54.0361 141.8551 56.0384 141.5751 57.9971C 137.3894 57.9389 133.411 57.0236 129.8073 55.4188C 129.9346 54.2968 130 53.156 130 52C 130 39.7728 122.6851 29.2541 112.1927 24.5813C 108.589 22.9764 104.6106 22.0611 100.4249 22.0029C 92.2868 21.89 84.1431 21.9048 76 21.9385C 67.8569 21.9048 59.7132 21.89 51.5751 22.0029C 47.3894 22.0611 43.411 22.9764 39.8073 24.5813C 29.3149 29.2541 22 39.7728 22 52C 22 53.156 22.0654 54.2968 22.1927 55.4188C 18.589 57.0236 14.6106 57.9389 10.4249 57.9971ZM 10.4249 57.9971C 10.2835 57.999 10.1419 58 10 58M 141.5751 57.9971C 141.7165 57.999 141.8581 58 142 58"></path>
                    </g>
                </g>
            </g>
            <g id="g-root-cp_11_g-11_8z07p3d4cvm7-fill" data-item-order="-350236" transform="translate(921, 137)">
                <g id="cp_11_g-11_8z07p3d4cvm7-fill-merged" stroke="none" fill="#67fac4" fill-opacity="1">
                    <g>
                        <path d="M142 52C142 28.804 123.196 10 100 10 H52C35.173 10 20.658 19.895 13.955 34.184C18.171 34.577 22.179 35.581 25.94 37.128C31.108 28.09 40.843 22 52 22 H100C116.568 22 130 35.431 130 52C130 68.568 116.568 82 100 82C83.864 82 67.71 82.221 51.575 81.997C47.389 81.939 43.411 81.024 39.807 79.419C29.315 74.746 22 64.227 22 52C22 50.844 22.065 49.703 22.193 48.581C18.589 46.976 14.611 46.061 10.425 46.003C10.145 47.962 10 49.964 10 52C10 69.554 20.769 84.593 36.061 90.87C39.801 92.405 43.811 93.416 48 93.812C49.317 93.936 50.651 94 52 94 H100C123.196 94 142 75.196 142 52"></path>
                    </g>
                </g>
            </g>
            <g id="g-root-cp_11_g-11_8z07p3d4cvm7-stroke" data-item-order="-350236" transform="translate(921, 137)">
                <g id="cp_11_g-11_8z07p3d4cvm7-stroke" fill="none" stroke-linecap="round" stroke-linejoin="round" stroke-miterlimit="4" stroke="#ffffff"
                   stroke-width="1" stroke-opacity="1">
                    <g>
                        <path d="M 142 52C 142 28.804 123.196 10 100 10L 52 10C 35.1734 10 20.6579 19.8951 13.955 34.1838C 18.171 34.5775 22.1788 35.581 25.9398 37.128C 31.1085 28.0904 40.843 22 52 22L 100 22C 116.5685 22 130 35.4315 130 52C 130 68.5685 116.5685 82 100 82C 83.8636 82 67.7098 82.221 51.5751 81.9971C 47.3894 81.9389 43.411 81.0236 39.8073 79.4188C 29.3149 74.7459 22 64.2272 22 52C 22 50.844 22.0654 49.7032 22.1927 48.5813C 18.589 46.9764 14.6106 46.0611 10.4249 46.0029C 10.1449 47.9616 10 49.9639 10 52C 10 69.5541 20.7692 84.5929 36.0612 90.8701C 39.8008 92.4051 43.8108 93.4162 48 93.812C 49.3166 93.9364 50.6509 94 52 94L 100 94C 123.196 94 142 75.196 142 52Z"></path>
                    </g>
                </g>
            </g>
            <g id="g-root-tx_securesc_1ut162fd41n2f-fill" data-item-order="0" transform="translate(927.984375, 77)">
                <g id="tx_securesc_1ut162fd41n2f-fill-merged" stroke="none" fill="#2b3846" fill-opacity="1">
                    <g>
                        <text style="font: 10.5px &quot;Inter Regular&quot;, sans-serif; white-space: pre;" transform="translate(69.015625, 28)"
                              font-size="10.5px" font-family="'Inter Regular', sans-serif">
                            <tspan x="-57.02" y="-6" dominant-baseline="ideographic">Secures code integrity</tspan>
                            <tspan x="-51.98" y="6" dominant-baseline="ideographic">by controlling merge</tspan>
                            <tspan x="-24.05" y="18" dominant-baseline="ideographic">requests.</tspan>
                        </text>
                    </g>
                </g>
            </g>
            <g id="g-root-tx_securesc_1ut162fd41n2f-stroke" data-item-order="0" transform="translate(927.984375, 77)"></g>
            <g id="g-root-tx_recordse_91i77bd41mob-fill" data-item-order="0" transform="translate(752.125, 77)">
                <g id="tx_recordse_91i77bd41mob-fill-merged" stroke="none" fill="#2b3846" fill-opacity="1">
                    <g>
                        <text style="font: 10.5px &quot;Inter Regular&quot;, sans-serif; white-space: pre;" transform="translate(64.875, 28)" font-size="10.5px"
                              font-family="'Inter Regular', sans-serif">
                            <tspan x="-50.5" y="-6" dominant-baseline="ideographic">Records events and</tspan>
                            <tspan x="-52.88" y="6" dominant-baseline="ideographic">errors for debugging</tspan>
                            <tspan x="-40.3" y="18" dominant-baseline="ideographic">and monitoring.</tspan>
                        </text>
                    </g>
                </g>
            </g>
            <g id="g-root-tx_recordse_91i77bd41mob-stroke" data-item-order="0" transform="translate(752.125, 77)"></g>
            <g id="g-root-tx_setsupap_8zmrxzd41nnz-fill" data-item-order="0" transform="translate(572.4921875, 65)">
                <g id="tx_setsupap_8zmrxzd41nnz-fill-merged" stroke="none" fill="#2b3846" fill-opacity="1">
                    <g>
                        <text style="font: 10.5px &quot;Inter Regular&quot;, sans-serif; white-space: pre;" transform="translate(64.5078125, 34)"
                              font-size="10.5px" font-family="'Inter Regular', sans-serif">
                            <tspan x="-52.51" y="-12" dominant-baseline="ideographic">Sets up a productive</tspan>
                            <tspan x="-32.38" y="0" dominant-baseline="ideographic">and efficient</tspan>
                            <tspan x="-33.66" y="12" dominant-baseline="ideographic">development</tspan>
                            <tspan x="-30.32" y="24" dominant-baseline="ideographic">workspace.</tspan>
                        </text>
                    </g>
                </g>
            </g>
            <g id="g-root-tx_setsupap_8zmrxzd41nnz-stroke" data-item-order="0" transform="translate(572.4921875, 65)"></g>
            <g id="g-root-tx_definesa_htecxjd41nuz-fill" data-item-order="0" transform="translate(390.96875, 77)">
                <g id="tx_definesa_htecxjd41nuz-fill-merged" stroke="none" fill="#2b3846" fill-opacity="1">
                    <g>
                        <text style="font: 10.5px &quot;Inter Regular&quot;, sans-serif; white-space: pre;" transform="translate(66.03125, 28)"
                              font-size="10.5px" font-family="'Inter Regular', sans-serif">
                            <tspan x="-29.73" y="-6" dominant-baseline="ideographic">Defines and</tspan>
                            <tspan x="-50.66" y="6" dominant-baseline="ideographic">implements AI agent</tspan>
                            <tspan x="-54.03" y="18" dominant-baseline="ideographic">capabilities and skills.</tspan>
                        </text>
                    </g>
                </g>
            </g>
            <g id="g-root-tx_definesa_htecxjd41nuz-stroke" data-item-order="0" transform="translate(390.96875, 77)"></g>
            <g id="g-root-tx_standard_dcbwmvd41mh3-fill" data-item-order="0" transform="translate(217.265625, 65)">
                <g id="tx_standard_dcbwmvd41mh3-fill-merged" stroke="none" fill="#2b3846" fill-opacity="1">
                    <g>
                        <text style="font: 10.5px &quot;Inter Regular&quot;, sans-serif; white-space: pre;" transform="translate(59.734375, 34)"
                              font-size="10.5px" font-family="'Inter Regular', sans-serif">
                            <tspan x="-47.73" y="-12" dominant-baseline="ideographic">Standardizes code</tspan>
                            <tspan x="-39.39" y="0" dominant-baseline="ideographic">appearance for</tspan>
                            <tspan x="-38.13" y="12" dominant-baseline="ideographic">readability and</tspan>
                            <tspan x="-38.48" y="24" dominant-baseline="ideographic">maintainability.</tspan>
                        </text>
                    </g>
                </g>
            </g>
            <g id="g-root-tx_standard_dcbwmvd41mh3-stroke" data-item-order="0" transform="translate(217.265625, 65)"></g>
            <g id="g-root-tx_ensuresc_zqx4afd409oj-fill" data-item-order="0" transform="translate(25.96875, 77)">
                <g id="tx_ensuresc_zqx4afd409oj-fill-merged" stroke="none" fill="#2b3846" fill-opacity="1">
                    <g>
                        <text style="font: 10.5px &quot;Inter Regular&quot;, sans-serif; white-space: pre;" transform="translate(71.03125, 28)"
                              font-size="10.5px" font-family="'Inter Regular', sans-serif">
                            <tspan x="-59.03" y="-6" dominant-baseline="ideographic">Ensures code accuracy</tspan>
                            <tspan x="-41.45" y="6" dominant-baseline="ideographic">and consistency</tspan>
                            <tspan x="-58.23" y="18" dominant-baseline="ideographic">through static analysis.</tspan>
                        </text>
                    </g>
                </g>
            </g>
            <g id="g-root-tx_ensuresc_zqx4afd409oj-stroke" data-item-order="0" transform="translate(25.96875, 77)"></g>
            <g id="g-root-tx_branchpr_92r5djd41oue-fill" data-item-order="0" transform="translate(930.8359375, 63)">
                <g id="tx_branchpr_92r5djd41oue-fill-merged" stroke="none" fill="#2b3846" fill-opacity="1">
                    <g>
                        <text style="font: 12px &quot;Inter 500&quot;, sans-serif; white-space: pre;" transform="translate(66.1640625, 17)" font-size="12px"
                              font-family="'Inter 500', sans-serif">
                            <tspan x="-54.16" y="7" dominant-baseline="ideographic">Branch Protection</tspan>
                        </text>
                    </g>
                </g>
            </g>
            <g id="g-root-tx_branchpr_92r5djd41oue-stroke" data-item-order="0" transform="translate(930.8359375, 63)"></g>
            <g id="g-root-ic_sear_143m8zbd408ht-fill" data-item-order="0" transform="translate(69, 161)"></g>
            <g id="g-root-ic_sear_143m8zbd408ht-stroke" data-item-order="0" transform="translate(69, 161)">
                <g id="ic_sear_143m8zbd408ht-stroke" fill="none" stroke-linecap="round" stroke-linejoin="round" stroke-miterlimit="4" stroke="#2b3846"
                   stroke-width="1" stroke-opacity="1">
                    <g>
                        <path d="M 36.3745 36.317501L 45.308498 45.25M 10.75 25.727499C 10.75 34.011772 17.465729 40.727501 25.75 40.727501C 34.034271 40.727501 40.75 34.011772 40.75 25.727501C 40.75 17.44323 34.034271 10.7275 25.75 10.7275C 17.465729 10.7275 10.75 17.44323 10.75 25.727501ZM 31 21.25L 35.5 25.75L 31 30.25M 20.5 21.25L 16 25.75L 20.5 30.25M 28 19.75L 23.5 31.75"></path>
                    </g>
                </g>
            </g>
            <g id="g-root-tx_logging_v7z8qfd41ngi-fill" data-item-order="0" transform="translate(780.53125, 63)">
                <g id="tx_logging_v7z8qfd41ngi-fill-merged" stroke="none" fill="#2b3846" fill-opacity="1">
                    <g>
                        <text style="font: 12px &quot;Inter 500&quot;, sans-serif; white-space: pre;" transform="translate(36.46875, 17)" font-size="12px"
                              font-family="'Inter 500', sans-serif">
                            <tspan x="-24.47" y="7" dominant-baseline="ideographic">Logging</tspan>
                        </text>
                    </g>
                </g>
            </g>
            <g id="g-root-tx_logging_v7z8qfd41ngi-stroke" data-item-order="0" transform="translate(780.53125, 63)"></g>
            <g id="g-root-ic_1_hvw647d4ihoh-fill" data-item-order="0" transform="translate(249, 161)"></g>
            <g id="g-root-ic_1_hvw647d4ihoh-stroke" data-item-order="0" transform="translate(249, 161)">
                <g id="ic_1_hvw647d4ihoh-stroke" fill="none" stroke-linecap="round" stroke-linejoin="round" stroke-miterlimit="4" stroke="#2b3846"
                   stroke-width="1" stroke-opacity="1">
                    <g>
                        <path d="M 45.25 43.75C 45.25 44.578426 44.578426 45.25 43.75 45.25L 12.25 45.25C 11.421573 45.25 10.75 44.578426 10.75 43.75L 10.75 12.25C 10.75 11.421573 11.421573 10.75 12.25 10.75L 43.75 10.75C 44.578426 10.75 45.25 11.421573 45.25 12.25ZM 10.75 28.75L 45.25 28.75M 21.25 45.25L 15.25 45.25L 15.25 32.5C 15.25 32.085785 15.585787 31.75 16 31.75L 20.5 31.75C 20.914213 31.75 21.25 32.085785 21.25 32.5ZM 30.25 16.75L 34.75 16.75L 34.75 28.75L 30.25 28.75ZM 38.926003 28.75L 34.243 15.109C 34.108818 14.717155 34.317673 14.290724 34.709499 14.1565L 37.547501 13.1815C 37.939346 13.047318 38.365776 13.25617 38.5 13.648L 43.683998 28.75M 30.25 28.75L 24.25 28.75L 24.25 16C 24.25 15.585787 24.585787 15.25 25 15.25L 29.5 15.25C 29.914213 15.25 30.25 15.585787 30.25 16ZM 27.25 45.25L 21.25 45.25L 21.25 32.5C 21.25 32.085785 21.585787 31.75 22 31.75L 26.5 31.75C 26.914213 31.75 27.25 32.085785 27.25 32.5ZM 40.75 45.25L 36.25 45.25L 36.25 32.5C 36.25 32.085785 36.585785 31.75 37 31.75L 40 31.75C 40.414215 31.75 40.75 32.085785 40.75 32.5ZM 36.25 45.25L 31.75 45.25L 31.75 34C 31.75 33.585785 32.085785 33.25 32.5 33.25L 35.5 33.25C 35.914215 33.25 36.25 33.585785 36.25 34ZM 18.25 36.25L 18.25 40.75M 24.25 36.25L 24.25 40.75"></path>
                    </g>
                </g>
            </g>
            <g id="g-root-tx_devenvir_zlxbljd41nny-fill" data-item-order="0" transform="translate(573.4609375, 51)">
                <g id="tx_devenvir_zlxbljd41nny-fill-merged" stroke="none" fill="#2b3846" fill-opacity="1">
                    <g>
                        <text style="font: 12px &quot;Inter 500&quot;, sans-serif; white-space: pre;" transform="translate(63.5390625, 17)" font-size="12px"
                              font-family="'Inter 500', sans-serif">
                            <tspan x="-51.54" y="7" dominant-baseline="ideographic">Dev Environment</tspan>
                        </text>
                    </g>
                </g>
            </g>
            <g id="g-root-tx_devenvir_zlxbljd41nny-stroke" data-item-order="0" transform="translate(573.4609375, 51)"></g>
            <g id="g-root-ic_2_dl2gond4fpjd-fill" data-item-order="0" transform="translate(429, 161)"></g>
            <g id="g-root-ic_2_dl2gond4fpjd-stroke" data-item-order="0" transform="translate(429, 161)">
                <g id="ic_2_dl2gond4fpjd-stroke" fill="none" stroke-linecap="round" stroke-linejoin="round" stroke-miterlimit="4" stroke="#2b3846"
                   stroke-width="1" stroke-opacity="1">
                    <g>
                        <path d="M 10.8295 44.912498L 10.8295 27.662498C 10.8295 26.005646 12.172646 24.662498 13.8295 24.662498L 25.450001 24.662498C 27.106853 24.662498 28.450001 26.005646 28.450001 27.662498L 28.450001 44.912498M 10.8295 34.787498L 28.4545 34.787498M 15.4495 24.662498L 14.5165 19.7875M 15.7045 29.912498C 15.7045 30.119608 15.872394 30.287498 16.0795 30.287498C 16.286606 30.287498 16.4545 30.119608 16.4545 29.912498C 16.4545 29.705393 16.286606 29.537498 16.0795 29.537498C 15.872394 29.537498 15.7045 29.705393 15.7045 29.912498M 22.4545 29.912498C 22.4545 30.119608 22.622393 30.287498 22.8295 30.287498C 23.036608 30.287498 23.2045 30.119608 23.2045 29.912498C 23.2045 29.705393 23.036608 29.537498 22.8295 29.537498C 22.622393 29.537498 22.4545 29.705393 22.4545 29.912498M 35.401001 11.0875C 32.783413 11.941515 30.914038 14.256634 30.630596 16.995386C 30.347153 19.734137 31.702787 22.383022 34.09 23.755001C 36.273403 24.92812 38.899597 24.92812 41.083 23.755001C 43.470211 22.383022 44.825844 19.734137 44.542404 16.995386C 44.258961 14.256634 42.389587 11.941515 39.771999 11.0875L 39.771999 16.856501C 39.772003 18.063519 38.793522 19.042 37.586502 19.042C 36.379486 19.042 35.401001 18.063519 35.401001 16.856501L 35.401001 11.0875M 34.808498 41.621498C 34.428482 41.735561 34.022144 41.726639 33.647499 41.596001L 28.450001 39.775002M 28.4545 35.745998L 34.810001 38.028999M 35.722 37.116997C 35.668953 36.932835 35.644669 36.741581 35.650002 36.550003L 35.761002 24.400002M 39.511002 24.3685L 39.400002 36.595001C 39.397591 36.771824 39.370842 36.947479 39.320503 37.117001M 34.268501 39.826C 34.268497 41.620373 35.723125 43.074997 37.517498 43.074997C 39.311874 43.074997 40.766499 41.620373 40.766499 39.825996C 40.766499 38.031628 39.311874 36.577 37.517498 36.577C 35.723125 36.577 34.268497 38.031628 34.268497 39.825996M 15.262 44.912498L 15.262 38.778999L 24.021999 38.778999L 24.021999 44.912498M 15.262 42.489998L 24.021999 42.489998M 12.1405 17.8615C 12.140415 18.949286 13.022215 19.831154 14.11 19.831154C 15.197784 19.831154 16.079584 18.949286 16.0795 17.8615C 16.079584 16.773716 15.197784 15.891846 14.11 15.891846C 13.022215 15.891846 12.140415 16.773716 12.1405 17.8615M 23.6875 24.662498L 24.620499 19.7875M 23.057499 17.8615C 23.057415 18.949286 23.939215 19.831154 25.027 19.831154C 26.114784 19.831154 26.996586 18.949286 26.996498 17.8615C 26.996586 16.773716 26.114784 15.891846 25.027 15.891846C 23.939215 15.891846 23.057415 16.773716 23.057499 17.8615"></path>
                    </g>
                </g>
            </g>
            <g id="g-root-tx_agentssk_v48e7rd41pfu-fill" data-item-order="0" transform="translate(400.1171875, 63)">
                <g id="tx_agentssk_v48e7rd41pfu-fill-merged" stroke="none" fill="#2b3846" fill-opacity="1">
                    <g>
                        <text style="font: 12px &quot;Inter 500&quot;, sans-serif; white-space: pre;" transform="translate(56.8828125, 17)" font-size="12px"
                              font-family="'Inter 500', sans-serif">
                            <tspan x="-44.88" y="7" dominant-baseline="ideographic">Agents &amp; Skills</tspan>
                        </text>
                    </g>
                </g>
            </g>
            <g id="g-root-tx_agentssk_v48e7rd41pfu-stroke" data-item-order="0" transform="translate(400.1171875, 63)"></g>
            <g id="g-root-ic_coff_147d0c7d4ebdb-fill" data-item-order="0" transform="translate(609, 161)"></g>
            <g id="g-root-ic_coff_147d0c7d4ebdb-stroke" data-item-order="0" transform="translate(609, 161)">
                <g id="ic_coff_147d0c7d4ebdb-stroke" fill="none" stroke-linecap="round" stroke-linejoin="round" stroke-miterlimit="4" stroke="#2b3846"
                   stroke-width="1" stroke-opacity="1">
                    <g>
                        <path d="M 35.5 44.5C 33.843147 44.5 32.5 43.156857 32.5 41.5L 32.5 35.5L 42.25 35.5L 42.25 41.5C 42.25 43.156857 40.906857 44.5 39.25 44.5ZM 35.935001 29.5C 34.824997 30.789999 37.014999 31.24 35.935001 32.5M 39.654999 27.25C 37.75 29.5 41.545002 30.25 39.654999 32.470001M 28.75 38.5L 21.25 38.5C 22.423431 36.685417 23.190945 34.638725 23.5 32.5L 26.5 32.5C 26.81316 34.637669 27.580353 36.683514 28.75 38.5ZM 19 38.5L 29.5 38.5M 31 32.5L 12.25 32.5C 11.465319 32.402859 10.847141 31.784679 10.75 30.999998L 10.75 13C 10.847141 12.215319 11.465319 11.597141 12.25 11.5L 37.75 11.5C 38.534679 11.597141 39.152855 12.215319 39.249996 13L 39.25 24.25M 16 26.5L 32.5 26.5M 18.25 16.75L 19.75 16.75C 20.164213 16.75 20.5 17.085787 20.5 17.5L 20.5 26.5L 20.5 26.5L 17.5 26.5L 17.5 26.5L 17.5 17.5C 17.5 17.085787 17.835787 16.75 18.25 16.75ZM 30.25 22L 31.75 22C 32.164215 22 32.5 22.335787 32.5 22.75L 32.5 26.5L 32.5 26.5L 29.5 26.5L 29.5 26.5L 29.5 22.75C 29.5 22.335787 29.835787 22 30.25 22ZM 24.25 19L 25.75 19C 26.164213 19 26.5 19.335787 26.5 19.75L 26.5 26.5L 26.5 26.5L 23.5 26.5L 23.5 26.5L 23.5 19.75C 23.5 19.335787 23.835787 19 24.25 19ZM 42.25 37.75L 43 37.75C 44.242641 37.75 45.25 38.757362 45.25 40C 45.25 41.242641 44.242641 42.25 43 42.25L 42.16 42.25"></path>
                    </g>
                </g>
            </g>
            <g id="g-root-tx_formatti_qn5xx3d41o1y-fill" data-item-order="0" transform="translate(231.7890625, 51)">
                <g id="tx_formatti_qn5xx3d41o1y-fill-merged" stroke="none" fill="#2b3846" fill-opacity="1">
                    <g>
                        <text style="font: 12px &quot;Inter 500&quot;, sans-serif; white-space: pre;" transform="translate(45.2109375, 17)" font-size="12px"
                              font-family="'Inter 500', sans-serif">
                            <tspan x="-33.21" y="7" dominant-baseline="ideographic">Formatting</tspan>
                        </text>
                    </g>
                </g>
            </g>
            <g id="g-root-tx_formatti_qn5xx3d41o1y-stroke" data-item-order="0" transform="translate(231.7890625, 51)"></g>
            <g id="g-root-tx_automate_qu15vbd41mh9-fill" data-item-order="0" transform="translate(840.9296875, 283)">
                <g id="tx_automate_qu15vbd41mh9-fill-merged" stroke="none" fill="#2b3846" fill-opacity="1">
                    <g>
                        <text style="font: 10.5px &quot;Inter Regular&quot;, sans-serif; white-space: pre;" transform="translate(66.0703125, 28)"
                              font-size="10.5px" font-family="'Inter Regular', sans-serif">
                            <tspan x="-47.37" y="-6" dominant-baseline="ideographic">Automates checks</tspan>
                            <tspan x="-54.07" y="6" dominant-baseline="ideographic">before code commits</tspan>
                            <tspan x="-48.1" y="18" dominant-baseline="ideographic">to maintain quality.</tspan>
                        </text>
                    </g>
                </g>
            </g>
            <g id="g-root-tx_automate_qu15vbd41mh9-stroke" data-item-order="0" transform="translate(840.9296875, 283)"></g>
            <g id="g-root-tx_typechec_1qd7nxzd409oi-fill" data-item-order="0" transform="translate(39.8984375, 63)">
                <g id="tx_typechec_1qd7nxzd409oi-fill-merged" stroke="none" fill="#2b3846" fill-opacity="1">
                    <g>
                        <text style="font: 12px &quot;Inter 500&quot;, sans-serif; white-space: pre;" transform="translate(57.1015625, 17)" font-size="12px"
                              font-family="'Inter 500', sans-serif">
                            <tspan x="-45.1" y="7" dominant-baseline="ideographic">Type Checking</tspan>
                        </text>
                    </g>
                </g>
            </g>
            <g id="g-root-tx_typechec_1qd7nxzd409oi-stroke" data-item-order="0" transform="translate(39.8984375, 63)"></g>
            <g id="g-root-ic_wind_1cy07w7d4cw7d-fill" data-item-order="0" transform="translate(969, 161)"></g>
            <g id="g-root-ic_wind_1cy07w7d4cw7d-stroke" data-item-order="0" transform="translate(969, 161)">
                <g id="ic_wind_1cy07w7d4cw7d-stroke" fill="none" stroke-linecap="round" stroke-linejoin="round" stroke-miterlimit="4" stroke="#2b3846"
                   stroke-width="1" stroke-opacity="1">
                    <g>
                        <path d="M 35.722 25.027L 35.722 15.109C 35.726833 14.37009 35.297573 13.697132 34.6255 13.39C 31.090748 11.846707 27.2698 11.067694 23.413 11.104C 19.556213 11.067829 15.735292 11.846837 12.2005 13.389999C 11.529273 13.697876 11.100782 14.370548 11.1055 15.109L 11.1055 24.721001C 11.105143 30.940042 14.935337 36.516872 20.74 38.749001L 22.054001 39.254501C 22.929373 39.59045 23.898125 39.59045 24.7735 39.254498L 26.087502 38.749001M 22.4935 34.843002C 18.141537 33.326126 15.212249 29.238091 15.175 24.629501L 15.175 16.1005C 17.743948 15.274331 20.426476 14.855756 23.125 14.86L 23.713001 14.86C 26.411966 14.856083 29.094751 15.276723 31.663 16.106501L 31.663 24.629501C 31.625933 29.239422 28.695162 33.328453 24.341499 34.844498L 23.424999 35.195503ZM 15.247 25.886499L 28.264 15.394M 17.802999 31.622499L 31.651001 20.459499M 30.644499 40L 38.879501 40C 39.985634 40.001644 40.953064 40.745281 41.239132 41.813789C 41.5252 42.882294 41.058731 44.009819 40.101387 44.563915C 39.144035 45.118011 37.933994 44.960815 37.150002 44.1805M 37.850498 31.219C 38.573277 29.530611 40.432709 28.636318 42.202888 29.125713C 43.973076 29.615108 45.10907 31.337538 44.861927 33.157425C 44.614788 34.97731 43.060593 36.334404 41.223999 36.334L 30.644499 36.334"></path>
                    </g>
                </g>
            </g>
            <g id="g-root-ic_aler_dkg2rbd3yvig-fill" data-item-order="0" transform="translate(159, 185)"></g>
            <g id="g-root-ic_aler_dkg2rbd3yvig-stroke" data-item-order="0" transform="translate(159, 185)">
                <g id="ic_aler_dkg2rbd3yvig-stroke" fill="none" stroke-linecap="round" stroke-linejoin="round" stroke-miterlimit="4" stroke="#2b3846"
                   stroke-width="1" stroke-opacity="1">
                    <g>
                        <path d="M 35.903351 40.52515C 35.603348 40.52515 35.303352 40.82515 35.303352 41.125149C 35.303352 41.425148 35.603348 41.725151 35.903351 41.725151M 35.903351 40.52515C 36.20335 40.52515 36.503349 40.82515 36.503349 41.125149C 36.503349 41.425148 36.20335 41.725151 35.903351 41.725151M 35.903351 37.22485L 35.903351 32.72485M 44.603348 41.125C 45.053352 41.875 44.903351 42.925003 44.45335 43.675003C 44.003349 44.425003 43.103348 44.875 42.20335 44.875L 29.45335 44.875C 28.55335 44.875 27.653351 44.425003 27.20335 43.675003C 26.753349 42.925003 26.60335 41.875 27.05335 41.125L 33.353352 28.375C 33.803352 27.474998 34.70335 26.875 35.753349 26.875C 36.803352 26.875 37.70335 27.474998 38.153351 28.375L 44.603348 41.125ZM 21.452049 42.1735L 11.124998 44.875L 13.819016 34.519451M 21.452049 42.1735L 13.819016 34.519451M 21.452049 42.1735L 22.799065 40.82275M 13.819016 34.519451L 35.520851 12.757615C 37.616203 10.656481 41.058548 10.506398 43.303448 12.757615C 45.3988 14.858755 45.3988 18.310555 43.303448 20.561785L 40.759148 23.11318M 34.92205 13.3579L 42.715599 21.151344M 36.269051 22.513014L 31.03075 17.260164"></path>
                    </g>
                </g>
            </g>
            <g id="g-root-ic_3_18gbaifd4h4hy-fill" data-item-order="0" transform="translate(339, 185)"></g>
            <g id="g-root-ic_3_18gbaifd4h4hy-stroke" data-item-order="0" transform="translate(339, 185)">
                <g id="ic_3_18gbaifd4h4hy-stroke" fill="none" stroke-linecap="round" stroke-linejoin="round" stroke-miterlimit="4" stroke="#2b3846"
                   stroke-width="1" stroke-opacity="1">
                    <g>
                        <path d="M 36.428497 18.251499C 36.428501 19.44195 37.393551 20.407 38.584003 20.407C 39.774452 20.407 40.739502 19.44195 40.739502 18.251501C 40.739502 17.06105 39.774452 16.096001 38.584003 16.096001C 37.393551 16.096001 36.428501 17.06105 36.428501 18.251501ZM 40 11.8L 40.491997 13.414C 40.66272 13.967039 41.231575 14.294343 41.795502 14.164L 43.431999 13.7845C 44.068756 13.640864 44.724777 13.929 45.049824 14.49507C 45.374866 15.061141 45.293026 15.772964 44.848 16.2505L 43.702 17.5C 43.305668 17.926085 43.305668 18.585917 43.702 19.012001L 44.8465 20.247999C 45.290142 20.725714 45.371151 21.43659 45.046364 22.001871C 44.721577 22.567152 44.066635 22.855183 43.430496 22.7125L 41.800003 22.328499C 41.236076 22.198158 40.667221 22.525459 40.496498 23.078499L 40 24.700001C 39.81258 25.325062 39.237305 25.753149 38.584747 25.753149C 37.932194 25.753149 37.356918 25.325062 37.169498 24.700001L 36.677498 23.086C 36.506775 22.532959 35.937923 22.205658 35.374001 22.336L 33.737499 22.7155C 33.101364 22.858183 32.446423 22.570152 32.121635 22.004871C 31.796848 21.43959 31.877857 20.728714 32.321499 20.250999L 33.466 19.014999C 33.862335 18.588917 33.862335 17.929085 33.466003 17.503L 32.321499 16.268499C 31.876472 15.790965 31.794632 15.079142 32.119675 14.513071C 32.444717 13.947 33.100742 13.658865 33.737499 13.8025L 35.374001 14.182C 35.937923 14.312343 36.506775 13.98504 36.677498 13.432L 37.167999 11.8C 37.354588 11.173678 37.930477 10.744342 38.584 10.744342C 39.237522 10.744342 39.813412 11.173678 40 11.8ZM 20.546501 24.439001C 20.916433 24.852633 21.445074 25.089062 22 25.089062C 22.554926 25.089062 23.083567 24.852633 23.453499 24.438999L 24.400002 23.398001C 24.955404 22.782318 25.838272 22.582993 26.604326 22.900328C 27.370377 23.217665 27.85367 23.98292 27.810999 24.810999L 27.739 26.212C 27.711166 26.765484 27.918877 27.304893 28.310745 27.696758C 28.70261 28.088625 29.24202 28.296337 29.795502 28.268501L 31.196499 28.196499C 32.024578 28.153828 32.789837 28.637121 33.10717 29.403173C 33.424507 30.169226 33.225182 31.052095 32.609501 31.6075L 31.568501 32.548C 31.154867 32.917931 30.918436 33.446575 30.918436 34.001499C 30.918436 34.556427 31.154867 35.085068 31.568501 35.454998L 32.609501 36.3955C 33.225182 36.950905 33.424507 37.833775 33.10717 38.599823C 32.789837 39.365875 32.024578 39.849171 31.196499 39.806499L 29.7955 39.734501C 29.24202 39.706665 28.70261 39.914379 28.310745 40.306244C 27.918877 40.698109 27.711166 41.237518 27.739002 41.791004L 27.810999 43.192001C 27.85367 44.020081 27.370377 44.785336 26.604326 45.102673C 25.838272 45.420006 24.955404 45.22068 24.4 44.605L 23.459499 43.563999C 23.089567 43.150368 22.560925 42.913937 22.006001 42.913937C 21.451075 42.913937 20.922432 43.150368 20.5525 43.563999L 19.6 44.605C 19.044594 45.22068 18.161726 45.420006 17.395674 45.102673C 16.629622 44.785336 16.146328 44.020081 16.188999 43.192001L 16.261 41.791C 16.288837 41.237518 16.081123 40.698109 15.689258 40.306244C 15.297392 39.914379 14.757983 39.706665 14.2045 39.734505L 12.8035 39.806499C 11.978688 39.844105 11.218843 39.360519 10.903643 38.597385C 10.588442 37.834248 10.78556 36.955406 11.3965 36.400002L 12.4375 35.459499C 12.851133 35.089565 13.087563 34.560928 13.087563 34.006001C 13.087563 33.451073 12.851133 32.922432 12.4375 32.552498L 11.3965 31.612C 10.780818 31.056595 10.581492 30.173727 10.898829 29.407673C 11.216164 28.641621 11.98142 28.158329 12.8095 28.201L 14.2105 28.273001C 14.763983 28.300838 15.303392 28.093124 15.695258 27.70126C 16.087124 27.309393 16.294838 26.769983 16.267 26.216501L 16.195 24.810999C 16.155437 23.985786 16.637829 23.224453 17.400894 22.907799C 18.163961 22.591143 19.043665 22.787237 19.599998 23.398001ZM 16.75 34.001499C 16.75 36.900997 19.100506 39.251503 22 39.251503C 24.899494 39.251503 27.25 36.900997 27.25 34.001503C 27.25 31.102005 24.899494 28.751501 22 28.751501C 19.100506 28.751501 16.75 31.102005 16.75 34.001503Z"></path>
                    </g>
                </g>
            </g>
            <g id="g-root-ic_idea_1qcl3p3d4fo5i-fill" data-item-order="0" transform="translate(519, 185)"></g>
            <g id="g-root-ic_idea_1qcl3p3d4fo5i-stroke" data-item-order="0" transform="translate(519, 185)">
                <g id="ic_idea_1qcl3p3d4fo5i-stroke" fill="none" stroke-linecap="round" stroke-linejoin="round" stroke-miterlimit="4" stroke="#2b3846"
                   stroke-width="1" stroke-opacity="1">
                    <g>
                        <path d="M 44.5 25L 44.5 38.531502C 44.500107 39.350647 43.84304 40.018394 43.024002 40.031502C 34.8745 40.27 28 42.515499 28 45.25C 28 42.514 21.124001 40.268501 12.976 40.022499C 12.15696 40.009392 11.499895 39.341644 11.5 38.522499L 11.5 16.777C 11.499942 16.374718 11.661472 15.989271 11.948317 15.707222C 12.235161 15.425172 12.623276 15.270162 13.0255 15.276999C 21.1525 15.529 28 17.7715 28 20.5M 15.25 22C 18.594093 22.17701 21.887112 22.896915 25.000002 24.1315M 15.25 27.1075C 18.593914 27.28363 21.886913 28.002518 25 29.236M 15.25 32.213501C 18.594013 32.388889 21.887133 33.107803 25 34.342003M 28 20.501499L 28 45.063999M 41.5 19.75C 41.50872 17.459375 39.795349 15.527727 37.520058 15.26302C 35.244759 14.998312 33.133698 16.485027 32.616322 18.716475C 32.098942 20.947922 33.34037 23.211937 35.5 23.9755L 35.5 25.75L 38.5 25.75L 38.5 23.976999C 40.294827 23.346252 41.496971 21.652428 41.500004 19.75ZM 35.5 28.751501L 38.5 28.751501M 36.25 31.751501L 37.75 31.751501M 37 12.2515L 37 10.7515M 42.304001 14.449L 43.364502 13.3885M 31.6975 14.449L 30.6355 13.3885"></path>
                    </g>
                </g>
            </g>
            <g id="g-root-ic_lock_1qcl3p3d4e9zg-fill" data-item-order="0" transform="translate(699, 185)"></g>
            <g id="g-root-ic_lock_1qcl3p3d4e9zg-stroke" data-item-order="0" transform="translate(699, 185)">
                <g id="ic_lock_1qcl3p3d4e9zg-stroke" fill="none" stroke-linecap="round" stroke-linejoin="round" stroke-miterlimit="4" stroke="#2b3846"
                   stroke-width="1" stroke-opacity="1">
                    <g>
                        <path d="M 14.545 22.75L 41.5 22.75M 14.545 33.25L 41.5 33.25M 30.880001 19.33C 30.751122 19.585098 30.490791 19.747082 30.204998 19.75L 25.885 19.75C 25.599209 19.747082 25.338879 19.585098 25.209999 19.33L 24.460001 17.83C 24.3545 17.596798 24.37262 17.326284 24.508274 17.109234C 24.643932 16.892185 24.879148 16.757359 25.135 16.75L 31 16.75C 31.263287 16.748466 31.508093 16.885103 31.645 17.110001C 31.773615 17.332767 31.773615 17.607231 31.644999 17.83ZM 30.880001 29.83C 30.751122 30.085098 30.490791 30.247082 30.204998 30.25L 25.885 30.25C 25.599209 30.247082 25.338879 30.085098 25.209999 29.829998L 24.460001 28.33C 24.331383 28.107229 24.331383 27.832767 24.459999 27.609999C 24.592003 27.387482 24.831276 27.250753 25.09 27.25L 31 27.25C 31.263287 27.248466 31.508093 27.385103 31.645 27.610001C 31.773615 27.832767 31.773615 28.107229 31.644999 28.329998ZM 30.880001 41.829998C 30.751122 42.085098 30.490791 42.247082 30.204998 42.25L 25.885 42.25C 25.599209 42.247082 25.338879 42.085098 25.209999 41.829998L 24.460001 40.329998C 24.3545 40.096798 24.37262 39.826286 24.508274 39.609234C 24.643932 39.392185 24.879148 39.257359 25.135 39.25L 31 39.25C 31.263287 39.248466 31.508093 39.385101 31.645 39.610001C 31.773615 39.832767 31.773615 40.107227 31.644999 40.329998ZM 41.5 43.75C 41.5 44.578426 40.828426 45.25 40 45.25L 16 45.25C 15.171573 45.25 14.5 44.578426 14.5 43.75L 14.5 12.25C 14.5 11.421573 15.171573 10.75 16 10.75L 40 10.75C 40.828426 10.75 41.5 11.421573 41.5 12.25Z"></path>
                    </g>
                </g>
            </g>
            <g id="g-root-ic_unlo_18n6ignd4cx6w-fill" data-item-order="0" transform="translate(879, 185)"></g>
            <g id="g-root-ic_unlo_18n6ignd4cx6w-stroke" data-item-order="0" transform="translate(879, 185)">
                <g id="ic_unlo_18n6ignd4cx6w-stroke" fill="none" stroke-linecap="round" stroke-linejoin="round" stroke-miterlimit="4" stroke="#2b3846"
                   stroke-width="1" stroke-opacity="1">
                    <g>
                        <path d="M 25.966 34.272999C 25.103714 33.003689 23.37561 32.673916 22.106501 33.536499L 12.3385 40.172501C 11.103842 41.047752 10.79635 42.749939 11.646748 44.001846C 12.497146 45.25375 14.192845 45.595207 15.4615 44.77L 25.2295 38.134003C 26.498997 37.271149 26.828728 35.54258 25.966 34.273003ZM 25.966 34.272999L 30.622 31L 30.622 28L 35.121998 28M 35.112999 25C 35.320107 24.999172 35.488667 25.166393 35.489494 25.373497C 35.490322 25.580601 35.323105 25.749165 35.115997 25.749994C 34.908894 25.750822 34.74033 25.583605 34.739502 25.376501C 34.738701 25.276922 34.777699 25.181149 34.847832 25.110455C 34.917961 25.039759 35.01342 24.999996 35.112999 25M 35.114502 25.75L 35.121998 29.5M 25.372 27.293501L 25.372 22.75C 25.372 21.921574 26.043571 21.25 26.872 21.25L 43.379501 21.264999C 44.207928 21.264999 44.879501 21.936573 44.879501 22.764999L 44.865997 34.720001C 44.870155 35.548431 44.201931 36.22337 43.373501 36.227501L 31.373499 36.227501M 28.3885 21.25L 28.372 17.530001C 28.355433 13.802078 31.364079 10.766569 35.092003 10.75C 38.819923 10.733432 41.855431 13.742078 41.871998 17.469999"></path>
                    </g>
                </g>
            </g>
            <g id="g-root-tx_linting_8zkdzd40ah8-fill" data-item-order="0" transform="translate(153.9765625, 269)">
                <g id="tx_linting_8zkdzd40ah8-fill-merged" stroke="none" fill="#2b3846" fill-opacity="1">
                    <g>
                        <text style="font: 12px &quot;Inter 500&quot;, sans-serif; white-space: pre;" transform="translate(33.0234375, 17)" font-size="12px"
                              font-family="'Inter 500', sans-serif">
                            <tspan x="-21.02" y="7" dominant-baseline="ideographic">Linting</tspan>
                        </text>
                    </g>
                </g>
            </g>
            <g id="g-root-tx_linting_8zkdzd40ah8-stroke" data-item-order="0" transform="translate(153.9765625, 269)"></g>
            <g id="g-root-tx_testing_1um5y47d41on4-fill" data-item-order="0" transform="translate(332.2265625, 269)">
                <g id="tx_testing_1um5y47d41on4-fill-merged" stroke="none" fill="#2b3846" fill-opacity="1">
                    <g>
                        <text style="font: 12px &quot;Inter 500&quot;, sans-serif; white-space: pre;" transform="translate(34.7734375, 17)" font-size="12px"
                              font-family="'Inter 500', sans-serif">
                            <tspan x="-22.77" y="7" dominant-baseline="ideographic">Testing</tspan>
                        </text>
                    </g>
                </g>
            </g>
            <g id="g-root-tx_testing_1um5y47d41on4-stroke" data-item-order="0" transform="translate(332.2265625, 269)"></g>
            <g id="g-root-tx_document_4hxuk7d41pfw-fill" data-item-order="0" transform="translate(488.375, 269)">
                <g id="tx_document_4hxuk7d41pfw-fill-merged" stroke="none" fill="#2b3846" fill-opacity="1">
                    <g>
                        <text style="font: 12px &quot;Inter 500&quot;, sans-serif; white-space: pre;" transform="translate(58.625, 17)" font-size="12px"
                              font-family="'Inter 500', sans-serif">
                            <tspan x="-46.63" y="7" dominant-baseline="ideographic">Documentation</tspan>
                        </text>
                    </g>
                </g>
            </g>
            <g id="g-root-tx_document_4hxuk7d41pfw-stroke" data-item-order="0" transform="translate(488.375, 269)"></g>
            <g id="g-root-tx_filesepa_1qa3aifd41mo8-fill" data-item-order="0" transform="translate(676.1171875, 269)">
                <g id="tx_filesepa_1qa3aifd41mo8-fill-merged" stroke="none" fill="#2b3846" fill-opacity="1">
                    <g>
                        <text style="font: 12px &quot;Inter 500&quot;, sans-serif; white-space: pre;" transform="translate(56.8828125, 17)" font-size="12px"
                              font-family="'Inter 500', sans-serif">
                            <tspan x="-44.88" y="7" dominant-baseline="ideographic">File Separation</tspan>
                        </text>
                    </g>
                </g>
            </g>
            <g id="g-root-tx_filesepa_1qa3aifd41mo8-stroke" data-item-order="0" transform="translate(676.1171875, 269)"></g>
            <g id="g-root-tx_precommi_1d0i7efd41n9g-fill" data-item-order="0" transform="translate(841.59375, 269)">
                <g id="tx_precommi_1d0i7efd41n9g-fill-merged" stroke="none" fill="#2b3846" fill-opacity="1">
                    <g>
                        <text style="font: 12px &quot;Inter 500&quot;, sans-serif; white-space: pre;" transform="translate(65.40625, 17)" font-size="12px"
                              font-family="'Inter 500', sans-serif">
                            <tspan x="-53.41" y="7" dominant-baseline="ideographic">Pre-Commit Hook</tspan>
                        </text>
                    </g>
                </g>
            </g>
            <g id="g-root-tx_precommi_1d0i7efd41n9g-stroke" data-item-order="0" transform="translate(841.59375, 269)"></g>
            <g id="g-root-tx_identifi_18nt2pjd40aa5-fill" data-item-order="0" transform="translate(118.1796875, 283)">
                <g id="tx_identifi_18nt2pjd40aa5-fill-merged" stroke="none" fill="#2b3846" fill-opacity="1">
                    <g>
                        <text style="font: 10.5px &quot;Inter Regular&quot;, sans-serif; white-space: pre;" transform="translate(68.8203125, 28)"
                              font-size="10.5px" font-family="'Inter Regular', sans-serif">
                            <tspan x="-56.82" y="-6" dominant-baseline="ideographic">Identifies and corrects</tspan>
                            <tspan x="-42.26" y="6" dominant-baseline="ideographic">coding style and</tspan>
                            <tspan x="-40.48" y="18" dominant-baseline="ideographic">potential errors.</tspan>
                        </text>
                    </g>
                </g>
            </g>
            <g id="g-root-tx_identifi_18nt2pjd40aa5-stroke" data-item-order="0" transform="translate(118.1796875, 283)"></g>
            <g id="g-root-tx_verifies_1hbbwtzd41n29-fill" data-item-order="0" transform="translate(302.109375, 283)">
                <g id="tx_verifies_1hbbwtzd41n29-fill-merged" stroke="none" fill="#2b3846" fill-opacity="1">
                    <g>
                        <text style="font: 10.5px &quot;Inter Regular&quot;, sans-serif; white-space: pre;" transform="translate(64.890625, 34)"
                              font-size="10.5px" font-family="'Inter Regular', sans-serif">
                            <tspan x="-34.14" y="-12" dominant-baseline="ideographic">Verifies code</tspan>
                            <tspan x="-52.89" y="0" dominant-baseline="ideographic">functionality through</tspan>
                            <tspan x="-51.28" y="12" dominant-baseline="ideographic">unit and end-to-end</tspan>
                            <tspan x="-14.92" y="24" dominant-baseline="ideographic">tests.</tspan>
                        </text>
                    </g>
                </g>
            </g>
            <g id="g-root-tx_verifies_1hbbwtzd41n29-stroke" data-item-order="0" transform="translate(302.109375, 283)"></g>
            <g id="g-root-tx_provides_1lsed4nd41og5-fill" data-item-order="0" transform="translate(477.8125, 283)">
                <g id="tx_provides_1lsed4nd41og5-fill-merged" stroke="none" fill="#2b3846" fill-opacity="1">
                    <g>
                        <text style="font: 10.5px &quot;Inter Regular&quot;, sans-serif; white-space: pre;" transform="translate(69.1875, 34)"
                              font-size="10.5px" font-family="'Inter Regular', sans-serif">
                            <tspan x="-22.5" y="-12" dominant-baseline="ideographic">Provides</tspan>
                            <tspan x="-57.19" y="0" dominant-baseline="ideographic">comprehensive guides</tspan>
                            <tspan x="-51.38" y="12" dominant-baseline="ideographic">and explanations for</tspan>
                            <tspan x="-36.34" y="24" dominant-baseline="ideographic">project usage.</tspan>
                        </text>
                    </g>
                </g>
            </g>
            <g id="g-root-tx_provides_1lsed4nd41og5-stroke" data-item-order="0" transform="translate(477.8125, 283)"></g>
            <g id="g-root-tx_organize_1cyms53d41o95-fill" data-item-order="0" transform="translate(669.859375, 283)">
                <g id="tx_organize_1cyms53d41o95-fill-merged" stroke="none" fill="#2b3846" fill-opacity="1">
                    <g>
                        <text style="font: 10.5px &quot;Inter Regular&quot;, sans-serif; white-space: pre;" transform="translate(63.140625, 34)"
                              font-size="10.5px" font-family="'Inter Regular', sans-serif">
                            <tspan x="-51.14" y="-12" dominant-baseline="ideographic">Organizes code into</tspan>
                            <tspan x="-42.64" y="0" dominant-baseline="ideographic">manageable and</tspan>
                            <tspan x="-40.2" y="12" dominant-baseline="ideographic">understandable</tspan>
                            <tspan x="-24.16" y="24" dominant-baseline="ideographic">modules.</tspan>
                        </text>
                    </g>
                </g>
            </g>
            <g id="g-root-tx_organize_1cyms53d41o95-stroke" data-item-order="0" transform="translate(669.859375, 283)"></g>
            <g id="g-root-ic_pin_m9u8zbd4ec5i-fill" data-item-order="0" transform="translate(789, 161)"></g>
            <g id="g-root-ic_pin_m9u8zbd4ec5i-stroke" data-item-order="0" transform="translate(789, 161)">
                <g id="ic_pin_m9u8zbd4ec5i-stroke" fill="none" stroke-linecap="round" stroke-linejoin="round" stroke-miterlimit="4" stroke="#2b3846"
                   stroke-width="1" stroke-opacity="1">
                    <g>
                        <path d="M 40.75 24.25C 40.75 23.421572 40.078426 22.75 39.25 22.75L 16.75 22.75C 15.921573 22.75 15.25 23.421572 15.25 24.25L 15.25 43.75C 15.25 44.578426 15.921573 45.25 16.75 45.25L 30.25 45.25C 31.19939 45.198517 32.102737 44.824371 32.810501 44.189499L 39.689499 37.310501C 40.324371 36.602737 40.698517 35.69939 40.75 34.75ZM 31.75 44.8825L 31.75 37.75C 31.75 36.921574 32.421574 36.25 33.25 36.25L 40.3825 36.25M 22.75 15.25C 22.75 17.735281 24.764719 19.75 27.25 19.75C 29.735283 19.75 31.75 17.735281 31.75 15.25C 31.75 12.764719 29.735283 10.75 27.25 10.75C 24.764719 10.75 22.75 12.764719 22.75 15.25ZM 27.25 19.75L 27.25 24.25M 27.25 13.75C 28.078428 13.75 28.75 14.421573 28.75 15.25M 20.5 28.75L 32.5 28.75M 20.5 33.25L 32.5 33.25M 20.5 37.75L 28 37.75"></path>
                    </g>
                </g>
            </g>
        </g>
    </g>
</svg>
