<?xml version="1.0" encoding="utf-8" standalone="yes"?>
<!DOCTYPE svg PUBLIC "-//W3C//DTD SVG 1.1//EN" "http://www.w3.org/Graphics/SVG/1.1/DTD/svg11.dtd">
<svg style="fill:none;stroke:none;fill-rule:evenodd;clip-rule:evenodd;stroke-linecap:round;stroke-linejoin:round;stroke-miterlimit:1.5;" version="1.1"
     xmlns="http://www.w3.org/2000/svg" xmlns:xlink="http://www.w3.org/1999/xlink" width="800" height="640" viewBox="40 130 607 420">
    <style class="text-font-style fontImports" data-font-family="Inter">@font-face {font-family: 'Inter Regular';src:
        url(https://fonts.napkin.ai/google-fonts/20250207/inter/inter_regular.ttf) format("truetype");font-weight: normal;font-style: normal;}
    </style>
    <g id="items" style="isolation: isolate">
        <g id="blend" style="mix-blend-mode: normal">
            <g id="g-root-cp_1-1_g-1-1_zrj8plxx9zpf-fill" data-item-order="-163376" transform="translate(125.8876953125, 122)">
                <g id="cp_1-1_g-1-1_zrj8plxx9zpf-fill-merged" stroke="none" fill="#35dea1" fill-opacity="1">
                    <g>
                        <path d="M30.113 62C23.613 62 18.113 56.5 18.113 50L10.971 45.715C9.676 44.938 9.676 43.062 10.971 42.285L18.113 38 V22C18.112 15.373 23.485 10 30.112 10 H294.269C300.896 10 306.269 15.373 306.269 22 V50C306.269 56.627 300.896 62 294.269 62 H30.112"></path>
                    </g>
                </g>
            </g>
            <g id="g-root-cp_1-1_g-1-1_zrj8plxx9zpf-stroke" data-item-order="-163376" transform="translate(125.8876953125, 122)">
                <g id="cp_1-1_g-1-1_zrj8plxx9zpf-stroke" fill="none" stroke-linecap="round" stroke-linejoin="round" stroke-miterlimit="4" stroke="#2c2c2c"
                   stroke-width="1" stroke-opacity="1">
                    <g>
                        <path d="M 18.112305 22C 18.112306 15.3726 23.484905 9.999999 30.112305 10M 294.268555 10L 30.112309 10M 306.268555 22C 306.268555 15.3726 300.895955 10.000001 294.268555 10M 306.268555 50L 306.268555 22M 294.268555 62C 300.895955 62 306.268555 56.6274 306.268555 50M 294.268555 62.000015L 30.112309 62.000015M 30.1127 62C 23.4853 62 18.1127 56.6274 18.1127 50L 10.971 45.715C 9.6763 44.9382 9.6763 43.0618 10.971 42.285L 18.1127 38M 18.112305 38L 18.112305 22"></path>
                    </g>
                </g>
            </g>
            <g id="g-root-cp_2-1_g-2-1_zrj8plxx9zpg-fill" data-item-order="-163340" transform="translate(163.828125, 184)">
                <g id="cp_2-1_g-2-1_zrj8plxx9zpg-fill-merged" stroke="none" fill="#3f9878" fill-opacity="1">
                    <g>
                        <path d="M292.172 52L299.314 56.285C300.608 57.062 300.608 58.938 299.314 59.715L292.172 64C292.172 71 287.172 76 280.172 76 H22C15.373 76 10 70.627 10 64 V22C10 15.373 15.373 10 22 10 H280.172C286.799 10 292.172 15.373 292.172 22 V52"></path>
                    </g>
                </g>
            </g>
            <g id="g-root-cp_2-1_g-2-1_zrj8plxx9zpg-stroke" data-item-order="-163340" transform="translate(163.828125, 184)">
                <g id="cp_2-1_g-2-1_zrj8plxx9zpg-stroke" fill="none" stroke-linecap="round" stroke-linejoin="round" stroke-miterlimit="4" stroke="#2c2c2c"
                   stroke-width="1" stroke-opacity="1">
                    <g>
                        <path d="M 10 22C 10.000001 15.3726 15.3726 9.999999 22 10M 280.171875 10L 21.999996 10M 292.171875 22C 292.171875 15.3726 286.799275 10.000001 280.171875 10M 292.171875 52L 292.171875 22M 280.17186 76C 286.79926 76 292.17186 70.6274 292.17186 64L 299.31356 59.715C 300.60826 58.9382 300.60826 57.0618 299.31356 56.285L 292.17186 52M 280.171875 75.999985L 21.999996 75.999985M 22 76C 15.3726 76 10 70.6274 10 64M 10 63.999653L 10 22"></path>
                    </g>
                </g>
            </g>
            <g id="g-root-cp_1-2_g-1-2_qvw8gpxxa0i5-fill" data-item-order="-163304" transform="translate(125.8876953125, 260)">
                <g id="cp_1-2_g-1-2_qvw8gpxxa0i5-fill-merged" stroke="none" fill="#35dea1" fill-opacity="1">
                    <g>
                        <path d="M30.113 48C23.613 48 18.113 42.5 18.113 36L10.971 31.715C9.676 30.938 9.676 29.062 10.971 28.285L18.113 24 V22C18.112 15.373 23.485 10 30.112 10 H259.8C266.427 10 271.8 15.373 271.8 22 V36C271.8 42.627 266.427 48 259.8 48 H30.112"></path>
                    </g>
                </g>
            </g>
            <g id="g-root-cp_1-2_g-1-2_qvw8gpxxa0i5-stroke" data-item-order="-163304" transform="translate(125.8876953125, 260)">
                <g id="cp_1-2_g-1-2_qvw8gpxxa0i5-stroke" fill="none" stroke-linecap="round" stroke-linejoin="round" stroke-miterlimit="4" stroke="#2c2c2c"
                   stroke-width="1" stroke-opacity="1">
                    <g>
                        <path d="M 18.112305 22C 18.112306 15.3726 23.484905 9.999999 30.112305 10M 259.799805 10L 30.112305 10M 271.799805 22C 271.799805 15.3726 266.427205 10.000001 259.799805 10M 271.799805 36L 271.799805 22M 259.799805 48C 266.427205 48 271.799805 42.6274 271.799805 36M 259.799805 48L 30.112305 48M 30.1127 48C 23.4853 48 18.1127 42.6274 18.1127 36L 10.971 31.715C 9.6763 30.9382 9.6763 29.0618 10.971 28.285L 18.1127 24M 18.112305 24L 18.112305 22"></path>
                    </g>
                </g>
            </g>
            <g id="g-root-cp_1_g-1_mg2qc9xxa1ae-fill" data-item-order="-163268" transform="translate(32.0001220703125, 200)">
                <g id="cp_1_g-1_mg2qc9xxa1ae-fill-merged" stroke="none" fill="#35dea1" fill-opacity="1">
                    <g>
                        <path d="M10 116.284C10 98.909 22.029 84.425 38.047 81.137C38.047 81.137 34.475 87.685 37.593 94.051C38.266 95.424 40.334 95.155 41.129 93.85C41.977 92.46 42.908 91.055 43.31 90.346L43.884 89.37C44.769 87.924 45.499 86.968 45.499 86.968C45.499 86.968 46.618 91.453 47.821 93.586C47.821 93.586 47.821 108.02 44.904 126.772C47.821 132.116 51.867 134.699 51.867 134.699C51.867 134.699 55.799 131.383 57.868 126.772C55.799 106.347 52.442 93.586 52.442 93.586C53.894 89.953 53.466 86.966 53.466 86.966C53.466 86.966 56.377 89.458 57.994 93.199C58.377 94.086 59.618 94.144 59.734 93.183C60.329 88.231 57.928 82.972 57.928 82.972C70.847 88.242 79.979 101.171 79.979 116.284 V139.999 H10 V116.284 M43.884 89.37C43.698 89.675 43.504 90.002 43.31 90.346L43.884 89.37"></path>
                    </g>
                </g>
                <g id="cp_1_g-1_mg2qc9xxa1ae-fill-merged" stroke="none" fill="#35dea1" fill-opacity="1">
                    <g>
                        <path d="M38.047 81.137L41.958 78.645L45.501 86.966C45.501 86.966 44.77 87.924 43.885 89.371C43.698 89.676 43.505 90.002 43.31 90.346C42.908 91.056 41.977 92.461 41.129 93.851C40.334 95.155 38.266 95.425 37.593 94.051C34.475 87.686 38.047 81.137 38.047 81.137 M57.928 82.972L55.778 80.208L53.466 86.966C53.466 86.966 56.378 89.458 57.994 93.2C58.377 94.086 59.619 94.145 59.734 93.184C60.329 88.231 57.928 82.972 57.928 82.972 M43.885 89.371L43.31 90.346L43.885 89.371"></path>
                    </g>
                </g>
                <g id="cp_1_g-1_mg2qc9xxa1ae-fill-merged" stroke="none" fill="#35dea1" fill-opacity="1">
                    <g>
                        <path d="M71.738 48.944 V37.608C71.738 37.608 59.461 40.005 50.774 37.608C42.086 35.211 37.303 28.218 37.303 28.218C37.303 31.317 36.9 42.047 31.41 48.499C30.663 48.231 30.051 48.066 28.758 48.604C27.466 49.142 26.586 50.402 26.28 51.631C26.28 51.631 21.638 35.623 24.098 29.801C27.539 21.655 32.848 19.466 32.848 19.466C35.279 10.109 49.437 8.14 57.154 11.587C64.871 15.034 68.542 20.665 74.375 14.263C84.682 29.884 79.025 45.957 71.738 48.944"></path>
                    </g>
                </g>
                <g id="cp_1_g-1_mg2qc9xxa1ae-fill-merged" stroke="none" fill="#35dea1" fill-opacity="1">
                    <g>
                        <path d="M47.821 93.586C47.821 93.586 47.821 108.02 44.904 126.772C47.821 132.116 51.867 134.698 51.867 134.698C51.867 134.698 55.799 131.383 57.868 126.772C55.799 106.347 52.442 93.586 52.442 93.586C53.894 89.953 53.464 86.955 53.464 86.955C53.464 86.955 52.071 86.324 49.724 86.324C47.404 86.324 45.499 86.967 45.499 86.967C45.499 86.967 46.617 91.453 47.821 93.586"></path>
                    </g>
                </g>
            </g>
            <g id="g-root-cp_1_g-1_mg2qc9xxa1ae-stroke" data-item-order="-163268" transform="translate(32.0001220703125, 200)">
                <g id="cp_1_g-1_mg2qc9xxa1ae-stroke" fill="none" stroke-linecap="round" stroke-linejoin="round" stroke-miterlimit="4" stroke="#2c2c2c"
                   stroke-width="1" stroke-opacity="1">
                    <g>
                        <path d="M 9.999985 116.283519C 9.999985 98.908819 22.029285 84.424919 38.047085 81.136719C 38.047085 81.136719 34.474885 87.685119 37.593185 94.051019C 38.265885 95.424219 40.333885 95.154719 41.129185 93.850419C 41.976785 92.460419 42.908085 91.055419 43.309785 90.346019L 43.884385 89.370419C 44.769285 87.923719 45.499185 86.967519 45.499185 86.967519C 45.499185 86.967519 46.617685 91.453019 47.821285 93.586419C 47.821285 93.586419 47.821285 108.019819 44.904485 126.772319C 47.821285 132.116019 51.867385 134.698519 51.867385 134.698519C 51.867385 134.698519 55.799185 131.383219 57.868285 126.772319C 55.799185 106.347419 52.442185 93.586419 52.442185 93.586419C 53.894485 89.953119 53.465885 86.965519 53.465885 86.965519C 53.465885 86.965519 56.377485 89.457719 57.993785 93.199119C 58.376985 94.086019 59.618285 94.144419 59.733785 93.183319C 60.329185 88.230519 57.928085 82.971719 57.928085 82.971719C 70.847285 88.242419 79.979385 101.170719 79.979385 116.283619L 79.979385 139.998819L 9.999985 139.998819L 9.999985 116.283519ZM 43.884385 89.370419C 43.697785 89.675419 43.504485 90.002019 43.309785 90.346019L 43.884385 89.370419ZM 23.611309 139.997719L 23.611309 106.511719M 68.334809 139.997719L 68.334809 106.511719M 51.867109 139.997719L 51.867109 134.697419"></path>
                    </g>
                </g>
                <g id="cp_1_g-1_mg2qc9xxa1ae-stroke" fill="none" stroke-linecap="round" stroke-linejoin="round" stroke-miterlimit="4" stroke="#2c2c2c"
                   stroke-width="1" stroke-opacity="1">
                    <g>
                        <path d="M 38.047298 81.137131L 41.957698 78.644531L 45.501198 86.966031C 45.501198 86.966031 44.769598 87.924131 43.884598 89.370831C 43.698098 89.675831 43.504798 90.002431 43.309998 90.346431C 42.908398 91.055831 41.977098 92.460831 41.129498 93.850831C 40.334098 95.155131 38.266198 95.424631 37.593498 94.051431C 34.475198 87.685531 38.047298 81.137131 38.047298 81.137131ZM 57.928398 82.972131L 55.778498 80.208131L 53.466198 86.966031C 53.466198 86.966031 56.377698 89.458131 57.994098 93.199531C 58.377198 94.086431 59.618598 94.144831 59.734098 93.183731C 60.329498 88.230931 57.928398 82.972131 57.928398 82.972131ZM 43.884598 89.370831L 43.309998 90.346431L 43.884598 89.370831Z"></path>
                    </g>
                </g>
                <g id="cp_1_g-1_mg2qc9xxa1ae-stroke" fill="none" stroke-linecap="round" stroke-linejoin="round" stroke-miterlimit="4" stroke="#2c2c2c"
                   stroke-width="1" stroke-opacity="1">
                    <g>
                        <path d="M 71.737933 48.9444L 71.737933 37.6082C 71.737933 37.6082 59.461133 40.0051 50.773733 37.6082C 42.086333 35.2112 37.303333 28.2181 37.303333 28.2181C 37.303333 31.3167 36.900033 42.0468 31.410033 48.499C 30.663133 48.2315 30.050633 48.0657 28.758333 48.6037C 27.466033 49.1417 26.586233 50.4023 26.279833 51.6307C 26.279833 51.6307 21.638033 35.6234 24.097633 29.8009C 27.538933 21.6546 32.847933 19.4657 32.847933 19.4657C 35.278533 10.1094 49.436933 8.1396 57.154133 11.5867C 64.871333 15.0338 68.541533 20.6649 74.375033 14.2632C 84.681533 29.8836 79.025033 45.9569 71.737933 48.9444Z"></path>
                    </g>
                </g>
                <g id="cp_1_g-1_mg2qc9xxa1ae-stroke" fill="none" stroke-linecap="round" stroke-linejoin="round" stroke-miterlimit="4" stroke="#2c2c2c"
                   stroke-width="1" stroke-opacity="1">
                    <g>
                        <path d="M 47.820975 93.586119C 47.820975 93.586119 47.820975 108.019519 44.904175 126.772019C 47.820975 132.115719 51.866975 134.698219 51.866975 134.698219C 51.866975 134.698219 55.798775 131.382919 57.867875 126.772019C 55.798775 106.347119 52.441775 93.586119 52.441775 93.586119C 53.894175 89.952819 53.463775 86.954919 53.463775 86.954919C 53.463775 86.954919 52.070575 86.324219 49.723575 86.324219C 47.404075 86.324219 45.498875 86.967219 45.498875 86.967219C 45.498875 86.967219 46.617275 91.452819 47.820975 93.586119ZM 47.821167 93.585938C 47.821167 93.585938 49.634967 93.585938 50.696067 93.585938C 51.757267 93.585937 52.442067 93.585938 52.442067 93.585938"></path>
                    </g>
                </g>
            </g>
            <g id="g-root-cp_0a_g-0a_mg2qc9xxa1af-fill" data-item-order="-163260" transform="translate(48.15625, 218.328125)">
                <g id="cp_0a_g-0a_mg2qc9xxa1af-fill-merged" stroke="none" fill="#f0f7ff" fill-opacity="1">
                    <g>
                        <path d="M39.626 61.886L37.307 68.645C37.307 68.645 36.029 68.009 33.566 68.009C31.103 68.009 29.344 68.645 29.344 68.645L25.791 60.32 V53.863C27.266 54.628 30.42 55.674 32.435 55.754C34.451 55.835 37.785 55.754 39.633 55.111 V61.886"></path>
                    </g>
                </g>
                <g id="cp_0a_g-0a_mg2qc9xxa1af-fill-merged" stroke="none" fill="#f0f7ff" fill-opacity="1">
                    <g>
                        <path d="M13.386 29.993C11.446 30.47 10 32.248 10 34.384C10 36.689 11.688 38.596 13.871 38.864C15.928 48.52 24.359 55.802 34.381 55.802C44.403 55.802 52.834 48.51 54.891 38.864C55.846 34.384 55.582 32.652 55.582 30.28C55.582 21.819 55.582 22.383 55.582 19.285C55.582 19.285 42.943 21.819 34.679 19.356C26.414 16.894 21.067 10 21.067 10C21.067 10 21.553 22.803 15.233 30.19C14.904 30 15.637 29.534 13.394 30"></path>
                    </g>
                </g>
                <g id="cp_0a_g-0a_mg2qc9xxa1af-fill-merged" stroke="none" fill="#f0f7ff" fill-opacity="1">
                    <g>
                        <path d="M43.78 43.242C42.213 48.047 34.623 48.024 33.063 43.242 H43.78"></path>
                    </g>
                </g>
            </g>
            <g id="g-root-cp_0a_g-0a_mg2qc9xxa1af-stroke" data-item-order="-163260" transform="translate(48.15625, 218.328125)">
                <g id="cp_0a_g-0a_mg2qc9xxa1af-stroke" fill="none" stroke-linecap="round" stroke-linejoin="round" stroke-miterlimit="4" stroke="#2c2c2c"
                   stroke-width="1" stroke-opacity="1">
                    <g>
                        <path d="M 39.625509 56.638981L 39.625509 61.885981L 37.306909 68.645481C 37.306909 68.645481 36.028909 68.008881 33.565909 68.008881C 31.102909 68.008881 29.343609 68.645481 29.343609 68.645481L 25.790609 60.320181L 25.790609 53.863281L 25.787109 53.863281C 27.265809 54.628481 30.419709 55.673981 32.435209 55.754381C 34.450709 55.834781 37.785209 55.754381 39.632709 55.110981L 39.625509 56.638981Z"></path>
                    </g>
                </g>
                <g id="cp_0a_g-0a_mg2qc9xxa1af-stroke" fill="none" stroke-linecap="round" stroke-linejoin="round" stroke-miterlimit="4" stroke="#2c2c2c"
                   stroke-width="1" stroke-opacity="1">
                    <g>
                        <path d="M 13.3859 29.9933C 11.4456 30.4701 10 32.2483 10 34.3842C 10 36.6889 11.6881 38.5962 13.871 38.8644C 15.9278 48.5204 24.3588 55.8021 34.3808 55.8021C 44.4029 55.8021 52.8338 48.5104 54.8906 38.8644C 55.8459 34.3842 55.5818 32.6523 55.5818 30.2801C 55.5818 21.8186 55.5818 22.3832 55.5818 19.2846C 55.5818 19.2846 42.9426 21.8186 34.6785 19.3564C 26.4143 16.8942 21.0669 10 21.0669 10C 21.0669 10 21.5531 22.8035 15.2334 30.1901C 14.9041 29.9999 15.6372 29.5343 13.3937 29.9999L 13.3859 29.9933Z"></path>
                    </g>
                </g>
                <g id="cp_0a_g-0a_mg2qc9xxa1af-stroke" fill="none" stroke-linecap="round" stroke-linejoin="round" stroke-miterlimit="4" stroke="#2c2c2c"
                   stroke-width="1" stroke-opacity="1">
                    <g>
                        <path d="M 43.780177 43.242188C 42.212877 48.046788 34.623277 48.023788 33.063477 43.242188L 43.780177 43.242188ZM 33.285484 30.239331C 33.285484 31.327131 32.414884 32.209031 31.340984 32.209031C 30.267084 32.209031 29.396484 31.327131 29.396484 30.239331C 29.396484 29.151431 30.267084 28.269531 31.340984 28.269531C 32.414884 28.269531 33.285484 29.151431 33.285484 30.239331ZM 49.063805 30.239331C 49.063805 31.327131 48.193205 32.209031 47.119305 32.209031C 46.045405 32.209031 45.174805 31.327131 45.174805 30.239331C 45.174805 29.151431 46.045405 28.269531 47.119305 28.269531C 48.193205 28.269531 49.063805 29.151431 49.063805 30.239331ZM 32.313641 30.238806C 32.313641 30.782706 31.878341 31.223706 31.341441 31.223706C 30.804441 31.223706 30.369141 30.782706 30.369141 30.238806C 30.369141 29.694806 30.804441 29.253906 31.341441 29.253906C 31.878341 29.253906 32.313641 29.694806 32.313641 30.238806ZM 48.091961 30.238806C 48.091961 30.782706 47.656661 31.223706 47.119761 31.223706C 46.582761 31.223706 46.147461 30.782706 46.147461 30.238806C 46.147461 29.694806 46.582761 29.253906 47.119761 29.253906C 47.656661 29.253906 48.091961 29.694806 48.091961 30.238806ZM 33.063682 23.354074C 33.063682 23.354074 29.745682 22.757974 27.747082 25.281274M 45.652344 23.354074C 45.652344 23.354074 48.970344 22.757974 50.968944 25.281274"></path>
                    </g>
                </g>
            </g>
            <g id="g-root-cp_2_g-2_i0987txxa22o-fill" data-item-order="-163255" transform="translate(476, 200)"></g>
            <g id="g-root-ic_1_1uua7dlyrbmyt-fill" data-item-order="-9702" transform="translate(465, 226)">
                <defs>
                    <linearGradient id="gradient-4b7667-349163930" x2="0" y2="1">
                        <stop offset="0" stop-color="#5cdea1"></stop>
                        <stop offset="1" stop-color="#3f9877"></stop>
                    </linearGradient>
                </defs>
                <g id="ic_1_1uua7dlyrbmyt-fill-merged" stroke="none" fill="url(#gradient-4b7667-349163930)" fill-opacity="1">
                    <g>
                        <path d="M32.573 55.146 H85.927C90.46 55.146 94.135 51.471 94.135 46.938 V18.208C94.135 13.675 90.46 10 85.927 10 H32.573C28.04 10 24.365 13.675 24.365 18.208 V46.938C24.365 51.471 28.04 55.146 32.573 55.146 M75.667 26.417C79.067 26.417 81.823 29.173 81.823 32.573C81.823 35.973 79.067 38.729 75.667 38.729C72.267 38.729 69.51 35.973 69.51 32.573C69.51 29.173 72.267 26.417 75.667 26.417 M42.833 26.417C46.233 26.417 48.99 29.173 48.99 32.573C48.99 35.973 46.233 38.729 42.833 38.729C39.433 38.729 36.677 35.973 36.677 32.573C36.677 29.173 39.433 26.417 42.833 26.417 M53.094 61.302C50.827 61.302 48.99 63.14 48.99 65.406C48.99 67.673 50.827 69.51 53.094 69.51 H65.406C67.673 69.51 69.51 67.673 69.51 65.406C69.51 63.14 67.673 61.302 65.406 61.302 H53.094 M105.627 50.508C104.267 48.695 101.695 48.327 99.881 49.687C98.068 51.047 97.7 53.62 99.06 55.433C99.871 56.493 100.304 57.793 100.292 59.127C100.292 61.777 98.596 64.129 96.082 64.967C93.568 65.805 90.8 64.94 89.21 62.821C87.85 61.007 85.278 60.64 83.465 62C81.651 63.36 81.284 65.932 82.644 67.746C85.136 71.101 88.979 73.188 93.15 73.45C93.456 73.474 93.738 73.622 93.93 73.861C94.057 74.134 94.057 74.449 93.93 74.723C93.301 77.49 91.735 79.954 89.498 81.7L87.897 82.931C87.632 83.147 87.291 83.246 86.951 83.208C86.611 83.169 86.301 82.995 86.091 82.726C82.547 78.32 77.217 75.73 71.563 75.667 H46.938C41.197 75.656 35.761 78.253 32.162 82.726C31.952 82.995 31.642 83.169 31.303 83.208C30.963 83.246 30.622 83.147 30.357 82.931L28.756 81.7C26.519 79.954 24.953 77.49 24.324 74.723C24.197 74.449 24.197 74.134 24.324 73.861C24.516 73.622 24.798 73.474 25.103 73.45C29.362 73.259 33.31 71.165 35.856 67.746C37.216 65.932 36.849 63.36 35.035 62C33.222 60.64 30.65 61.007 29.29 62.821C27.714 64.923 24.977 65.794 22.475 64.988C19.974 64.182 18.26 61.877 18.208 59.25C18.196 57.916 18.629 56.616 19.44 55.556C20.833 53.743 20.493 51.143 18.68 49.749C16.867 48.355 14.267 48.695 12.873 50.508C10.969 53.021 9.958 56.097 10 59.25C9.997 63.241 11.664 67.05 14.597 69.757C15.385 70.508 15.843 71.541 15.869 72.63C16.06 78.77 18.961 84.51 23.79 88.307L26.458 90.36C27.508 91.186 28.09 92.473 28.017 93.807C27.949 95.487 28.086 97.168 28.428 98.814C28.428 99.142 28.428 98.568 30.357 104.478C31.239 106.938 33.571 108.58 36.185 108.582 H82.315C84.89 108.499 87.145 106.833 87.979 104.396C89.99 98.486 89.826 99.06 89.908 98.732C90.249 97.086 90.387 95.405 90.319 93.725C90.246 92.39 90.828 91.104 91.878 90.277L94.546 88.225C99.375 84.428 102.275 78.688 102.467 72.547C102.493 71.459 102.951 70.426 103.739 69.675C106.712 67.017 108.438 63.237 108.5 59.25C108.542 56.097 107.531 53.021 105.627 50.508"></path>
                    </g>
                </g>
            </g>
            <g id="g-root-ic_1_1uua7dlyrbmyt-stroke" data-item-order="-9702" transform="translate(465, 226)"></g>
            <g id="g-root-tx_heyihave_4pf6xlxxa0hv-fill" data-item-order="0" transform="translate(146, 134)">
                <g id="tx_heyihave_4pf6xlxxa0hv-fill-merged" stroke="none" fill="#2c2c2c" fill-opacity="1">
                    <g>
                        <text style="font: bold 11.3px &quot;Inter Regular&quot;, sans-serif; white-space: pre;" transform="translate(10, 24)"
                              font-weight="bold" font-size="11.3px" font-family="'Inter Regular', sans-serif">
                            <tspan x="2" y="0" dominant-baseline="ideographic">hey I have this huge idea, can you break it down</tspan>
                            <tspan x="2" y="14" dominant-baseline="ideographic">into smaller Backlog.md tasks?</tspan>
                        </text>
                    </g>
                </g>
            </g>
            <g id="g-root-tx_heyihave_4pf6xlxxa0hv-stroke" data-item-order="0" transform="translate(146, 134)"></g>
            <g id="g-root-tx_sureletm_1qf2qjdxxa1vo-fill" data-item-order="0" transform="translate(175.828125, 196)">
                <g id="tx_sureletm_1qf2qjdxxa1vo-fill-merged" stroke="none" fill="#2c2c2c" fill-opacity="1">
                    <g>
                        <text style="font: bold 11.3px &quot;Inter Regular&quot;, sans-serif; white-space: pre;" transform="translate(10, 31)"
                              font-weight="bold" font-size="11.3px" font-family="'Inter Regular', sans-serif">
                            <tspan x="2" y="-7" dominant-baseline="ideographic">Sure, let me connect to Backlog.md’s MCP</tspan>
                            <tspan x="2" y="7" dominant-baseline="ideographic">server and create tasks following Backlog.md’s</tspan>
                            <tspan x="2" y="21" dominant-baseline="ideographic">Task Creation Instructions.</tspan>
                        </text>
                    </g>
                </g>
            </g>
            <g id="g-root-tx_sureletm_1qf2qjdxxa1vo-stroke" data-item-order="0" transform="translate(175.828125, 196)"></g>
            <g id="g-root-tx_tasksloo_1ha2lztxxbe31-fill" data-item-order="0" transform="translate(146, 272)">
                <g id="tx_tasksloo_1ha2lztxxbe31-fill-merged" stroke="none" fill="#2c2c2c" fill-opacity="1">
                    <g>
                        <text style="font: bold 11.3px &quot;Inter Regular&quot;, sans-serif; white-space: pre;" transform="translate(10, 17)"
                              font-weight="bold" font-size="11.3px" font-family="'Inter Regular', sans-serif">
                            <tspan x="2" y="7" dominant-baseline="ideographic">Tasks look good. Start working on TASK-1.</tspan>
                        </text>
                    </g>
                </g>
            </g>
            <g id="g-root-tx_tasksloo_1ha2lztxxbe31-stroke" data-item-order="0" transform="translate(146, 272)"></g>
        </g>
    </g>
</svg>
